<svg xmlns="http://www.w3.org/2000/svg" width="157.999" height="45.111" viewBox="0 0 157.999 45.111">
  <g id="Groupe_81" data-name="Groupe 81" transform="translate(-2250.941 -1174.682)" opacity="0.51">
    <path id="Tracé_88" data-name="Tracé 88" d="M2357.762,1326.753a5.524,5.524,0,0,1,4.177-1.341q21.494,1.658,43.039,2.5c11.7.441,23.393.422,35.086-.26,8.855-.517,17.708-1.055,26.532-1.958a113.643,113.643,0,0,0,14.667-2.193,27.265,27.265,0,0,0,3.029-.968c.474-.173,1.02-.43,1.046-1.013.027-.621-.6-.763-1.022-1.019a6.776,6.776,0,0,0-.734-.331,3.6,3.6,0,0,1,3.656,1.46c.379.927-.266,1.469-.857,1.943a15.793,15.793,0,0,1-4.914,2.39,96.6,96.6,0,0,1-17.23,3.906c-19.793,2.957-39.71,3.581-59.687,3.175q-16.12-.327-32.183-1.638c-6.8-.547-13.58-1.29-20.369-1.94-.208-.02-.325-.141-.493-.329a36.507,36.507,0,0,0,4.935-1.707,2.664,2.664,0,0,0,.613.22c2.169.218,4.34.422,6.51.624.309.029.615-.023.65-.406.04-.441-.326-.4-.6-.435Q2360.686,1327.089,2357.762,1326.753Zm17.98,1.677c-.215.048-.729-.262-.9.282-.116.374.208.505.536.5,2.017-.029,4.01.268,6.015.413.309.022.749.078.748-.4,0-.379-.38-.376-.671-.4C2379.61,1328.7,2377.749,1328.568,2375.742,1328.43Zm-8.879-.714c-.2.105-.748-.295-.854.334-.065.39.309.447.6.47,1.962.152,3.925.3,5.889.428.265.017.65-.009.635-.419-.012-.317-.315-.353-.579-.373Zm22.816,2.369c.4,0,.549.01.695,0,.3-.024.754.11.756-.362,0-.434-.418-.414-.755-.428-1.9-.082-3.809.032-5.7-.231-.278-.039-.683-.078-.732.292-.063.473.389.3.637.351C2386.347,1330.04,2388.166,1329.693,2389.679,1330.085Zm3.042-.056a43.553,43.553,0,0,0,6.557.326c.256.008.7.17.712-.243.015-.448-.455-.387-.759-.393-1.968-.037-3.936-.059-5.9-.079A.5.5,0,0,0,2392.721,1330.029Zm51.1-.516c-2,.28-3.9.128-5.793.221-.272.013-.663-.063-.623.387.028.309.324.347.595.331,1.923-.115,3.846-.227,5.769-.348.235-.015.594.037.557-.334C2444.294,1329.425,2443.948,1329.524,2443.826,1329.513Zm-34.849.839c-.021-.214-.187-.236-.318-.241q-3.017-.108-6.034-.2c-.275-.008-.7-.083-.706.306s.424.318.7.321q2.914.031,5.827.04C2408.645,1330.583,2408.9,1330.633,2408.977,1330.352Zm38.535-.437a30.872,30.872,0,0,1,4.226-.3c.331-.013.79-.036.75-.441-.042-.439-.518-.314-.815-.253a25.067,25.067,0,0,1-4.256.365c-.4.014-1.164-.168-1.136.283C2446.319,1330.208,2447.059,1329.724,2447.512,1329.915Zm-18.88.224c0,.119,0,.238,0,.357,2.2,0,4.4,0,6.6-.011.1,0,.291-.163.293-.255.006-.21-.187-.3-.379-.3Q2431.892,1330.029,2428.632,1330.139Zm-1.653.378c-1.3-.568-6.711-.476-7.329.024A47.659,47.659,0,0,0,2426.979,1330.518Zm41.485-3.109a30.592,30.592,0,0,0-6.127.727A15.146,15.146,0,0,0,2468.464,1327.409Zm-50.642,3c-1.349-.454-6.462-.367-7.005.052A33.232,33.232,0,0,0,2417.822,1330.406Zm42.6-1.658a12.934,12.934,0,0,0-6.19.4C2456.463,1329.439,2458.416,1328.606,2460.425,1328.748Zm9.9-1.769a6.6,6.6,0,0,0,4.5-.755Zm10.029-1.823a6.6,6.6,0,0,0-3.39.915Z" transform="translate(-78.41 -113.361)" fill="#432c7e"/>
    <path id="Tracé_89" data-name="Tracé 89" d="M2275.618,1174.682a16.83,16.83,0,0,1,9.074,2.73,5.2,5.2,0,0,1,1.744,1.8,1.321,1.321,0,0,1-.127,1.8,1.459,1.459,0,0,1-1.985.149,14.915,14.915,0,0,0-10.147-2.9c-4.625.492-8.65,2.182-11.255,6.327a8.834,8.834,0,0,0-.542.955c-1.005,2.147-.464,3.524,1.674,4.529,2.206,1.037,4.633,1.035,6.943,1.576a19.831,19.831,0,0,1,8,3.442c3.446,2.7,4.686,7.489,1.386,11.365a21.3,21.3,0,0,1-20.232,7.609,16.149,16.149,0,0,1-8.17-4.065,3.657,3.657,0,0,1-.868-1.12,1.063,1.063,0,0,1,.286-1.47c.51-.344,1.034-.742,1.689-.232a15.175,15.175,0,0,0,12.253,2.95c4.3-.715,8.038-2.548,10.03-6.8a2.965,2.965,0,0,0-1.562-4.353,23.032,23.032,0,0,0-6.262-1.584,20.592,20.592,0,0,1-8.123-2.887c-4.091-2.774-4.877-6.773-2-10.806,3.114-4.366,7.532-6.846,12.6-8.284A19.8,19.8,0,0,1,2275.618,1174.682Z" fill="#d5872c"/>
    <path id="Tracé_90" data-name="Tracé 90" d="M2634.815,1230.3l.439.077c.114.572.476.655.965.49l.01.064,0-.064,1.885,4.277q-.016.22-.032.441a6.863,6.863,0,0,1-.958.053c-.6-.047-.712.326-.362.614.61.5.207,1.064.277,1.592a.155.155,0,0,1-.124.164c-.17.026-.292.1-.288.294l.016-.014-.108-.017c-.823-.107-1.47,1.346-2.44.276-.067-.074-.671.248-.675.563a2.8,2.8,0,0,0,.393.981l-.028,0c-.364-.139-.736-.41-.985.18-.137.326-.2.562.262.594l0,0c-.244,1.122,0,1.452,1.215,1.646l.019.034c-.124,1.327.4,2.082,1.887,2.717l.177.242a4.167,4.167,0,0,0,1.272,2.644c.345.439-.021,1.224.81,1.4a1.727,1.727,0,0,1,1.2,1.034c.322.714.354.009.507-.1l.408.283c.137.742.864.408,1.255.688q0,.219,0,.438c-1.275,0-2.55.007-3.825,0-1.163-.007-2.378.238-3.366-.661q-3.473-4.923-6.941-9.849c-.156-.221-.487-.469-.22-.758a.858.858,0,0,1,.785-.3,2.452,2.452,0,0,0,.972.012,4.593,4.593,0,0,0,4.017-4.278c.089-2.311-.917-3.462-3.7-4.23-.045-.1-.073-.27-.137-.285a11.063,11.063,0,0,0-3.151-.071.493.493,0,0,0-.423.658,5.628,5.628,0,0,1,0,2.034c.036,5.3-.249,10.6.2,15.89.1,1.146.841,1.48,1.754.838l.5.1c.184.231.712.254.518.7-.141.326-.516.2-.793.2-2.3.008-4.6.034-6.893-.012a15.572,15.572,0,0,1-2.207-.351,3.207,3.207,0,0,1,1.411-.508c.442-.069,1.028.183,1.231-.424a1.218,1.218,0,0,0-.527-1.333l.075-.449c.093-.1.263-.2.266-.309.083-2.439.162-4.886.165-7.318,0-1.731-.046-3.492-.139-5.236-.019-.344.159-.745-.232-1.008a4.121,4.121,0,0,1-.146-1.556c-.177-1.053,1.5-1.491.888-2.744-.133-.273.391-.322.674-.323a25.211,25.211,0,0,0,2.59.139c1.933-.233,3.854-.045,5.777-.143.312-.016.685.1.807-.355a1.456,1.456,0,0,1,.906.035c.1.316.238.333.422.062l.49.005-.026.072c.05.112.108.105.17.01a.132.132,0,0,0,.092-.063l.587.1C2634.446,1230.444,2634.553,1230.621,2634.815,1230.3Z" transform="translate(-286.893 -43.044)" fill="#402b83"/>
    <path id="Tracé_91" data-name="Tracé 91" d="M2729.236,1250.7c-.095-.563-.077-1.036.7-.986,1.135.072,1.669-.623,2.113-1.556,2.594-5.456,4.875-11.05,7.305-16.578a9.526,9.526,0,0,0,.681-1.614,1.837,1.837,0,0,1,2.37-1.552c.561.071.907.148,1.159.716q4.245,9.585,8.54,19.148l-.1.131.167.018-.006.007c-.222.6.246.882.606,1.145a4.525,4.525,0,0,0,2.16.685q0,.219-.006.438-4.54,0-9.08,0c-.291,0-.583-.01-.874-.023a.3.3,0,0,1-.3-.259c-.033-.225.112-.335.312-.356a8.961,8.961,0,0,0,.977-.076c1.163-.255,1.361-1,.53-1.93l-.094-.23a3.823,3.823,0,0,0-1.155-2.845c-.234-.381-.361-.752-1.009-.733-2.448.073-4.9.051-7.35.029a.988.988,0,0,0-1.14.725,15.239,15.239,0,0,0-1.3,4.27c.291.723.973.644,1.56.771.274.059.79-.2.744.325-.034.387-.507.328-.83.329Q2732.58,1250.708,2729.236,1250.7Zm11.205-16.542c-1.173,2.659-2.222,5.057-3.293,7.447-.26.58,0,.69.5.689q2.85-.005,5.7,0c.446,0,.723-.08.474-.627C2742.726,1239.257,2741.642,1236.833,2740.441,1234.162Zm12.014,15.828c-.061-.026-.136-.086-.18-.069s-.056.112-.083.173c.061.026.136.086.18.069S2752.429,1250.051,2752.456,1249.99Z" transform="translate(-372.899 -41.872)" fill="#402b83"/>
    <path id="Tracé_92" data-name="Tracé 92" d="M2520,1230.264c2.414-.1,4.829-.186,7.243-.3.622-.03.748.234.692.787-.14,1.384-.268,2.771-.347,4.159-.036.627-.424.546-.828.567-.42.022-.732-.035-.679-.564a1.105,1.105,0,0,0-.01-.219c-.25-2.382-.25-2.39-2.719-2.49-1.062-.043-2.126-.025-3.188-.069-.533-.022-.815.107-.813.712.021,5.535-.173,11.07-.014,16.607.035,1.212.792,1.359,1.765,1.44.511.043,1.458-.331,1.334.867-.046.445-.192.558-.6.535a86.668,86.668,0,0,0-10.111.009c-.37.023-.666.017-.635-.483.024-.385-.127-.841.53-.84,2.729,0,2.534-.521,2.638-3.02.049-1.171.084-2.342.125-3.512.389-.107.337-.425.338-.714q0-5.051,0-10.1c0-.261.012-.524-.3-.633.011-.71-.358-.885-1.03-.874q-2.306.039-4.605.172c-.788.046-1.132.34-1.131,1.119,0,.436-.137.876-.114,1.308.042.787-.45.715-.984.751-.776.052-.568-.485-.584-.874-.054-1.316-.052-2.635-.143-3.948-.039-.569.162-.714.668-.688,2.081.1,4.163.194,6.244.29.1.318.352.321.617.321q3.012,0,6.024,0C2519.636,1230.575,2519.895,1230.578,2520,1230.264Z" transform="translate(-198.727 -43.099)" fill="#432f84"/>
    <path id="Tracé_93" data-name="Tracé 93" d="M2859.818,1233.1a1.963,1.963,0,0,1-1.1-.137,8.049,8.049,0,0,0-4.436.019l-.146.447a.622.622,0,0,0-.09.2,6.077,6.077,0,0,0-.006,3.247q-.005,1.577-.011,3.154c-.222.164-.152.4-.163.623q0,4.073,0,8.146c.1.731-.229,1.505.219,2.2v0c.234,1.165.5,1.287,1.534.71l.889.116c.163.361.726.44.674.953l.009,0c-3.081-.005-6.162.006-9.242-.032-.5-.006-1.442.287-1.423-.275.026-.745.946-.323,1.459-.348,1.393-.066,1.492-.166,1.061-1.559l.018-.444c.465-.089.394-.457.394-.777q0-7.781,0-15.562c0-.349.1-.773-.452-.831l.011,0a8.495,8.495,0,0,0-4.409.006,2.853,2.853,0,0,1-1.325.152.52.52,0,0,0-.651-.1l.119.212-.317.811c-.363.235-.2.674-.382.987-.139.241-.107.676-.45.671-.424-.006-.427-.5-.448-.764-.073-.941-.016-1.891-.074-2.834-.045-.73.251-.92.949-.934a11.935,11.935,0,0,0,3.456-.141l1.111.036c.037.256.206.341.44.342h9.034l.193-.214c.01-.041.018-.082.024-.124l.682-.019a15.95,15.95,0,0,0,4.127.106c.917-.024,1.406.226,1.533,1.127l-.083.446c-.578.618-.338,1.295-.14,1.968l-.023.894c-.849-.007-1.371-.2-1.309-1.287C2861.1,1233.749,2861.033,1232.653,2859.818,1233.1Z" transform="translate(-460.127 -43.93)" fill="#402b83"/>
    <path id="Tracé_94" data-name="Tracé 94" d="M2420.257,1232.657l-.178.55c-1.17.625-.233,1.311-.058,1.975v.01a2.3,2.3,0,0,0-.052,1.971l-.029.893a1.965,1.965,0,0,0,.7,2.983c-1.239.08-.563.878-.621,1.412.025,2.411.09,4.822.055,7.231-.015,1.015.343,1.377,1.33,1.245a6.53,6.53,0,0,1,1.2.053l-1.917.131c1.72.156,3.434.155,5.148.158.279,0,.511-.052.577-.373.351-.146.617.191.946.167a10.718,10.718,0,0,1,2.137-.238l0,0c-.066.124-.1.287-.2.363-.209.155-.661.011-.629.454.03.422.374.485.725.509.164.011.38-.027.418.377-5.418.243-10.822-.225-16.248.122.064-.6.9-.415.66-1.032l0,.005a1.7,1.7,0,0,1,.872.411c.168.16.548.059.413-.2-.584-1.125-.081-2.256-.09-3.374-.043-4.871-.018-9.742-.019-14.612,0-1.793-.257-2.059-2.071-2.186-.269-.019-.7.111-.706-.3-.01-.511.472-.346.759-.349,1.9-.016,3.81,0,5.714-.015.386,0,.814.144,1.146-.2l.449,0c.125.067.249.191.374.191,2.7.009,5.412.091,8.109-.047.9-.046.921.224,1.009.9.078.607-.411,1.234.086,1.806q-.028.223-.056.446c-.359.457-.551,1.437-1.375.439v-.016q-.013-.386-.026-.772l-.23-.739a2.021,2.021,0,0,0-1.886-.865c-1.751-.1-3.512-.034-5.269-.035-.334,0-.685-.028-.737.442h0Z" transform="translate(-126.064 -43.754)" fill="#432f84"/>
    <path id="Tracé_95" data-name="Tracé 95" d="M2444.412,1267.294c.057-.533-.619-1.331.62-1.412a1.965,1.965,0,0,1-.7-2.983c.011.109.03.218.033.328.046,2.041.045,2.052,2.063,2.078,1.136.014,2.273-.027,3.409-.02.8,0,1.153-.333,1.248-1.166.065-.575-.247-1.587,1.022-1.444.485.054.636.2.608.658a46,46,0,0,0,.014,6.043c.037.525-.239.628-.671.586-.361-.035-.871.18-.835-.508a.518.518,0,0,0-.01-.109c-.359-2.233-.359-2.26-2.64-2.248A15.172,15.172,0,0,0,2444.412,1267.294Zm.808-.439c1.688,0,3.323.06,4.948-.036a1.893,1.893,0,0,1,1.266.237c.917.519.073.881.078,1.3,0,.181-.053.363-.043.543.018.341-.112.817.472.787.489-.025.4-.446.4-.756.009-1.574.022-3.148-.008-4.721-.007-.376.264-1.03-.43-1.028s-.346.657-.436,1.032a.6.6,0,0,0,0,.219c.12.839-.179,1.155-1.08,1.134C2448.608,1265.522,2446.734,1265.163,2445.22,1266.856Z" transform="translate(-150.453 -68.598)" fill="#432c7e"/>
    <path id="Tracé_96" data-name="Tracé 96" d="M2416.13,1309.762c.235.618-.6.43-.66,1.032,5.426-.346,10.83.121,16.248-.122-.038-.4-.254-.366-.418-.377-.351-.024-.7-.087-.725-.509-.032-.443.42-.3.629-.453.1-.076.139-.239.2-.363a.743.743,0,0,0,.554-1.073c-.1-.323-.217-.665.057-.912,1.046-.946.08-.929-.508-1.1.1-.828.744-.413,1.117-.413.539,0,.285.487.265.763-.1,1.312-.276,2.619-.316,3.932-.021.677-.259.824-.884.877-2.747.231-5.484-.1-8.226-.073-2.341.027-4.683.055-7.024.056-.457,0-1.124.429-1.33-.245C2414.886,1310.032,2415.673,1309.994,2416.13,1309.762Z" transform="translate(-127.974 -101.895)" fill="#432c7e"/>
    <path id="Tracé_97" data-name="Tracé 97" d="M2418.455,1230.1c-.332.346-.76.2-1.146.2-1.9.015-3.809,0-5.714.015-.287,0-.769-.163-.759.349.008.411.438.28.706.3,1.814.127,2.07.393,2.071,2.186,0,4.871-.024,9.742.019,14.612.01,1.118-.494,2.25.09,3.374.135.258-.245.359-.413.2a1.7,1.7,0,0,0-.872-.411,1.415,1.415,0,0,0,.687-1.274q.465-8.405.108-16.816a1.316,1.316,0,0,0-1.5-1.458c-.323,0-.643-.1-.967-.129-.587-.062-.4-.508-.415-.839-.022-.443.231-.522.635-.51C2413.472,1229.983,2415.963,1230.038,2418.455,1230.1Z" transform="translate(-124.277 -43.055)" fill="#432c7e"/>
    <path id="Tracé_98" data-name="Tracé 98" d="M2629.408,1229.913c-.121.453-.494.339-.807.356-1.922.1-3.844-.089-5.777.143a25.173,25.173,0,0,1-2.59-.138c-.283,0-.808.05-.674.323.614,1.253-1.065,1.69-.888,2.744-.2-1.794-.205-1.793-1.753-2.023-.524-.078-1.121-.029-.991-.893.146-.969.8-.4,1.239-.464l.03.037.028-.038.882.035a66.218,66.218,0,0,0,6.766-.007l.849-.029s.028.042.028.042l.037-.037.845-.012.025.047.017-.052Z" transform="translate(-284.569 -43.016)" fill="#432c7e"/>
    <path id="Tracé_99" data-name="Tracé 99" d="M2652.067,1256.139c-.913.642-1.657.308-1.754-.838-.449-5.291-.165-10.593-.2-15.89a5.628,5.628,0,0,0,0-2.034.493.493,0,0,1,.423-.658,11.065,11.065,0,0,1,3.151.071c.064.015.092.186.136.285-.84.019-1.68.043-2.521.055-.525.007-.779.194-.77.785.066,4.314-.318,8.621-.191,12.94.037,1.234.181,2.45.239,3.675C2650.632,1255.531,2651.028,1256.1,2652.067,1256.139Z" transform="translate(-311.192 -48.31)" fill="#432c7e"/>
    <path id="Tracé_100" data-name="Tracé 100" d="M2618.735,1317.762a1.218,1.218,0,0,1,.527,1.333c-.2.607-.79.355-1.231.424a3.209,3.209,0,0,0-1.411.508,15.584,15.584,0,0,0,2.207.351c2.3.046,4.6.02,6.893.012.277,0,.652.126.792-.2.195-.449-.334-.471-.517-.7.519-.1.9-.137.9.633,0,.812-.471.639-.938.615a88.808,88.808,0,0,0-9.111-.007c-.355.019-.84.266-.864-.445-.019-.552.1-.909.746-.9C2617.835,1319.4,2618.807,1319.22,2618.735,1317.762Z" transform="translate(-284.621 -111.561)" fill="#432c7e"/>
    <path id="Tracé_101" data-name="Tracé 101" d="M2375.229,1350.4q2.924.339,5.848.679c.278.033.643-.007.6.435-.035.383-.341.435-.65.406q-3.256-.3-6.51-.624a2.675,2.675,0,0,1-.613-.22A2.518,2.518,0,0,1,2375.229,1350.4Z" transform="translate(-95.877 -137.011)" fill="#af745f"/>
    <path id="Tracé_102" data-name="Tracé 102" d="M2843.92,1230.176a11.936,11.936,0,0,1-3.457.14c-.7.014-.993.2-.948.934.057.943,0,1.893.074,2.834.021.264.024.757.448.764.344.005.312-.431.451-.671.181-.313.019-.752.382-.987-.015.471-.058.943-.036,1.413.034.737-.335.87-1,.875-.76.006-.562-.476-.58-.874-.059-1.31-.083-2.622-.178-3.929-.042-.578.1-.78.7-.732C2841.157,1230.052,2842.54,1230.1,2843.92,1230.176Z" transform="translate(-458.568 -43.083)" fill="#432f84"/>
    <path id="Tracé_103" data-name="Tracé 103" d="M2799.189,1317.712c.831.927.633,1.675-.53,1.93a8.956,8.956,0,0,1-.977.076c-.2.021-.345.131-.312.356a.3.3,0,0,0,.3.259c.291.014.582.023.874.023q4.54,0,9.079,0c.067.525-.312.377-.571.36a82.613,82.613,0,0,0-9.556-.007c-.382.02-.743.1-.719-.49.018-.456-.056-.914.648-.826a2.759,2.759,0,0,0,.655-.056C2799.525,1319.164,2799.525,1319.163,2799.189,1317.712Z" transform="translate(-425.593 -111.522)" fill="#432c7e"/>
    <path id="Tracé_104" data-name="Tracé 104" d="M2866.114,1319.738c.431,1.393.332,1.493-1.061,1.559-.513.024-1.434-.4-1.459.348-.019.562.924.269,1.423.275,3.08.038,6.161.027,9.242.032-.011.607-.458.337-.72.322a94.264,94.264,0,0,0-9.669,0c-.42.02-.858.192-.9-.557s.366-.687.864-.746C2864.741,1320.862,2865.832,1321.029,2866.114,1319.738Z" transform="translate(-477.199 -113.101)" fill="#432c7e"/>
    <path id="Tracé_105" data-name="Tracé 105" d="M2458.823,1232.964c-.5-.572-.008-1.2-.086-1.806-.087-.677-.106-.948-1.009-.9-2.7.138-5.405.056-8.109.047-.125,0-.25-.125-.374-.191,3.029-.095,6.056-.276,9.09-.152.8.032,1,.323.814,1.066C2458.992,1231.66,2458.928,1232.317,2458.823,1232.964Z" transform="translate(-154.618 -43.069)" fill="#432c7e"/>
    <path id="Tracé_106" data-name="Tracé 106" d="M2877.071,1239.784c.552.057.451.482.452.831q.005,7.781,0,15.562c0,.32.071.687-.394.777.177-5.262.156-10.526.14-15.789C2877.268,1240.7,2877.393,1240.207,2877.071,1239.784Z" transform="translate(-488.197 -50.761)" fill="#432c7e"/>
    <path id="Tracé_107" data-name="Tracé 107" d="M2628.9,1252.755c.391.263.214.664.232,1.008.093,1.744.141,3.505.139,5.236,0,2.432-.083,4.879-.165,7.318,0,.106-.174.206-.266.309Q2628.865,1259.691,2628.9,1252.755Z" transform="translate(-294.646 -60.874)" fill="#432c7e"/>
    <path id="Tracé_108" data-name="Tracé 108" d="M2899.135,1257.332q0-4.073,0-8.146c.24-.159.221-.385.162-.623q.005-1.577.011-3.153,0-1.623.006-3.247a.621.621,0,0,1,.089-.2q-.012,7.748-.018,15.5c0,.692.1,1.383.148,2.074h-.182v0C2899.252,1258.8,2899.57,1258.03,2899.135,1257.332Z" transform="translate(-505.401 -52.462)" fill="#432f84"/>
    <path id="Tracé_109" data-name="Tracé 109" d="M2729.378,1324.66q3.344,0,6.688,0c.323,0,.8.058.83-.329.046-.529-.47-.266-.743-.325-.588-.127-1.27-.048-1.561-.771a4.079,4.079,0,0,0,2.13.417c.722.018.583.482.608.9.039.634-.378.447-.737.427a63.213,63.213,0,0,0-6.483-.016C2729.843,1324.972,2729.408,1325.274,2729.378,1324.66Z" transform="translate(-373.04 -115.827)" fill="#432c7e"/>
    <path id="Tracé_110" data-name="Tracé 110" d="M2701.949,1305.719c-.153.113-.185.818-.507.1a1.727,1.727,0,0,0-1.2-1.034c-.832-.174-.465-.958-.81-1.4a4.169,4.169,0,0,1-1.272-2.644Z" transform="translate(-348.699 -98.295)" fill="#432c7e"/>
    <path id="Tracé_111" data-name="Tracé 111" d="M2449.234,1237.12c.052-.47.4-.442.737-.442,1.757,0,3.518-.064,5.27.035a2.022,2.022,0,0,1,1.886.864c-2.342-.725-4.75-.414-7.134-.454C2449.739,1237.118,2449.487,1237.121,2449.234,1237.12Z" transform="translate(-154.61 -48.323)" fill="#432c7e"/>
    <path id="Tracé_112" data-name="Tracé 112" d="M2544.51,1243.755c.314.109.3.372.3.633q0,5.051,0,10.1c0,.288.051.607-.337.714a1.535,1.535,0,0,1,.024-.9.1.1,0,0,0,.011-.168v-.5a.1.1,0,0,0,0-.164Z" transform="translate(-228.825 -53.857)" fill="#432c7e"/>
    <path id="Tracé_113" data-name="Tracé 113" d="M2877.162,1231.528h-9.034c0-.114,0-.229,0-.343l9.248,0q-.01.062-.024.124Z" transform="translate(-481.224 -44.057)" fill="#432c7e"/>
    <path id="Tracé_114" data-name="Tracé 114" d="M2690.252,1326.7c.988.9,2.2.654,3.366.661,1.275.008,2.55,0,3.825,0-.178.445-.568.22-.848.23-1.531.054-3.068,0-4.592.12C2691.1,1327.789,2690.533,1327.569,2690.252,1326.7Z" transform="translate(-342.533 -118.534)" fill="#432c7e"/>
    <path id="Tracé_115" data-name="Tracé 115" d="M2699.474,1238.593l-1.886-4.277A4.051,4.051,0,0,1,2699.474,1238.593Z" transform="translate(-348.253 -46.497)" fill="#432c7e"/>
    <path id="Tracé_116" data-name="Tracé 116" d="M2926.176,1240.094c1.215-.451,1.281.645,1.25,1.194-.062,1.088.46,1.28,1.309,1.287.192.771-.325.7-.822.739-.583.051-.654-.243-.662-.712s-.131-.943-.134-1.414A.958.958,0,0,0,2926.176,1240.094Z" transform="translate(-526.485 -50.92)" fill="#432f84"/>
    <path id="Tracé_117" data-name="Tracé 117" d="M2918.879,1231.478c-.127-.9-.616-1.152-1.533-1.127a15.958,15.958,0,0,1-4.127-.106c1.446-.067,2.893-.115,4.337-.207C2919.147,1229.935,2919.146,1229.918,2918.879,1231.478Z" transform="translate(-516.382 -43.13)" fill="#432f84"/>
    <path id="Tracé_118" data-name="Tracé 118" d="M2685.228,1269.726a2.791,2.791,0,0,1-.393-.981c0-.315.607-.637.675-.563.97,1.07,1.617-.382,2.44-.276l.109.017A6.672,6.672,0,0,1,2685.228,1269.726Z" transform="translate(-338.31 -72.683)" fill="#432c7e"/>
    <path id="Tracé_119" data-name="Tracé 119" d="M2454.95,1322.033c-.065.321-.3.373-.576.373-1.714,0-3.428,0-5.148-.158l1.917-.131Z" transform="translate(-154.604 -114.891)" fill="#402b83"/>
    <path id="Tracé_120" data-name="Tracé 120" d="M2488.617,1307.712c.587.172,1.554.156.508,1.1-.274.248-.156.589-.057.912a.743.743,0,0,1-.554,1.073l0,0c-.423-.544.3-1.216-.2-1.752q.061-.225.123-.449c.267-.091.371-.219.1-.432C2488.561,1308.013,2488.589,1307.863,2488.617,1307.712Z" transform="translate(-185.081 -103.725)" fill="#432f84"/>
    <path id="Tracé_121" data-name="Tracé 121" d="M2544.477,1231.313c-.1.314-.362.311-.625.311q-3.012,0-6.024,0c-.264,0-.521,0-.616-.321Z" transform="translate(-223.207 -44.148)" fill="#432c7e"/>
    <path id="Tracé_122" data-name="Tracé 122" d="M2901.029,1238.8a8.051,8.051,0,0,1,4.436-.019Z" transform="translate(-506.878 -49.742)" fill="#432f84"/>
    <path id="Tracé_123" data-name="Tracé 123" d="M2699.587,1257.993c-.069-.528.333-1.089-.277-1.592-.35-.289-.239-.661.362-.614a6.883,6.883,0,0,0,.958-.053A3.6,3.6,0,0,1,2699.587,1257.993Z" transform="translate(-349.442 -63.197)" fill="#432c7e"/>
    <path id="Tracé_124" data-name="Tracé 124" d="M2690.622,1290.034c-1.486-.634-2.011-1.39-1.887-2.717A20.751,20.751,0,0,1,2690.622,1290.034Z" transform="translate(-341.337 -87.823)" fill="#432c7e"/>
    <path id="Tracé_125" data-name="Tracé 125" d="M2632.649,1230.465a66.148,66.148,0,0,1-6.766.007Z" transform="translate(-292.344 -43.495)" fill="#af745f"/>
    <path id="Tracé_126" data-name="Tracé 126" d="M2836.056,1321.246a4.525,4.525,0,0,1-2.16-.685c-.361-.263-.829-.541-.606-1.145a2.277,2.277,0,0,0,2.1,1.287C2835.681,1320.714,2836.216,1320.6,2836.056,1321.246Z" transform="translate(-454.015 -112.85)" fill="#432c7e"/>
    <path id="Tracé_127" data-name="Tracé 127" d="M2486.109,1246.2c.824,1,1.016.017,1.375-.439.006.18.02.359.015.538-.011.516.021,1.007-.776.972C2485.852,1247.237,2486.114,1246.672,2486.109,1246.2Z" transform="translate(-183.336 -55.423)" fill="#432c7e"/>
    <path id="Tracé_128" data-name="Tracé 128" d="M2481.447,1313.759c.495.536-.227,1.208.2,1.752a10.706,10.706,0,0,0-2.136.238C2480.522,1315.445,2481.393,1315,2481.447,1313.759Z" transform="translate(-178.214 -108.44)" fill="#432c7e"/>
    <path id="Tracé_129" data-name="Tracé 129" d="M2857.1,1238.789a8.493,8.493,0,0,1,4.409-.007Z" transform="translate(-472.63 -49.755)" fill="#432c7e"/>
    <path id="Tracé_130" data-name="Tracé 130" d="M2684.112,1281.34c-1.215-.194-1.459-.524-1.215-1.646A7.756,7.756,0,0,1,2684.112,1281.34Z" transform="translate(-336.732 -81.879)" fill="#432c7e"/>
    <path id="Tracé_131" data-name="Tracé 131" d="M2444.358,1243.709c-.175-.664-1.112-1.35.058-1.975Q2444.387,1242.721,2444.358,1243.709Z" transform="translate(-150.402 -52.281)" fill="#432c7e"/>
    <path id="Tracé_132" data-name="Tracé 132" d="M2802.055,1303.754a3.824,3.824,0,0,1,1.155,2.845Z" transform="translate(-429.707 -100.639)" fill="#432c7e"/>
    <path id="Tracé_133" data-name="Tracé 133" d="M2937.11,1240.709c-.2-.673-.438-1.35.14-1.968Q2937.18,1239.725,2937.11,1240.709Z" transform="translate(-534.837 -49.947)" fill="#432f84"/>
    <path id="Tracé_134" data-name="Tracé 134" d="M2900.132,1321.721h.181c.226.665.865.543,1.352.711C2900.629,1323.008,2900.366,1322.886,2900.132,1321.721Z" transform="translate(-506.178 -114.648)" fill="#432c7e"/>
    <path id="Tracé_135" data-name="Tracé 135" d="M2718.469,1325.284c-.39-.281-1.118.054-1.255-.688C2717.553,1324.969,2718.443,1324.339,2718.469,1325.284Z" transform="translate(-363.556 -116.889)" fill="#432c7e"/>
    <path id="Tracé_136" data-name="Tracé 136" d="M2681.925,1276.321c-.467-.032-.4-.268-.262-.594.249-.591.621-.32.984-.18C2682.428,1275.826,2681.785,1275.708,2681.925,1276.321Z" transform="translate(-335.757 -78.501)" fill="#432c7e"/>
    <path id="Tracé_137" data-name="Tracé 137" d="M2911.8,1326.3c.052-.513-.511-.592-.674-.953C2912.069,1325.162,2911.9,1325.762,2911.8,1326.3Z" transform="translate(-514.753 -117.45)" fill="#432c7e"/>
    <path id="Tracé_138" data-name="Tracé 138" d="M2445.27,1252.712a2.3,2.3,0,0,1,.052-1.971Z" transform="translate(-151.366 -59.304)" fill="#432c7e"/>
    <path id="Tracé_139" data-name="Tracé 139" d="M2694.136,1232.585c-.489.166-.851.082-.965-.49A1.849,1.849,0,0,1,2694.136,1232.585Z" transform="translate(-344.809 -44.765)" fill="#432c7e"/>
    <path id="Tracé_140" data-name="Tracé 140" d="M2848.256,1240.023l-.119-.212a.52.52,0,0,1,.651.1Z" transform="translate(-465.637 -50.726)" fill="#432c7e"/>
    <path id="Tracé_141" data-name="Tracé 141" d="M2689.608,1231.259c-.263.325-.37.148-.443-.137Z" transform="translate(-341.686 -44.007)" fill="#432c7e"/>
    <path id="Tracé_142" data-name="Tracé 142" d="M2486.107,1244.184q.013.386.026.772Q2486.12,1244.57,2486.107,1244.184Z" transform="translate(-183.36 -54.191)" fill="#432c7e"/>
    <path id="Tracé_143" data-name="Tracé 143" d="M2488.967,1309.759c.274.213.17.341-.1.432Z" transform="translate(-185.514 -105.321)" fill="#432c7e"/>
    <path id="Tracé_144" data-name="Tracé 144" d="M2866.572,1231.186c0,.114,0,.228,0,.343-.234,0-.4-.086-.441-.342Z" transform="translate(-479.665 -44.057)" fill="#432f84"/>
    <path id="Tracé_145" data-name="Tracé 145" d="M2685.573,1230.62a.133.133,0,0,1-.092.063.232.232,0,0,0-.17-.01l.026-.072Z" transform="translate(-338.681 -43.601)" fill="#af745f"/>
    <path id="Tracé_146" data-name="Tracé 146" d="M2447.274,1238.864l.429-.105Z" transform="translate(-153.081 -49.961)" fill="#432c7e"/>
    <path id="Tracé_147" data-name="Tracé 147" d="M2699.4,1267.025c0-.2.118-.268.288-.294Z" transform="translate(-349.662 -71.771)" fill="#432c7e"/>
    <path id="Tracé_148" data-name="Tracé 148" d="M2681.712,1230.357c-.183.27-.325.253-.421-.062Z" transform="translate(-335.546 -43.362)" fill="#432c7e"/>
    <path id="Tracé_149" data-name="Tracé 149" d="M2832.93,1318.859l-.167-.018.1-.131A.123.123,0,0,1,2832.93,1318.859Z" transform="translate(-453.65 -112.3)" fill="#432c7e"/>
    <path id="Tracé_150" data-name="Tracé 150" d="M2621.677,1230.177l-.028.038s-.031-.037-.03-.037.029-.047.029-.047Z" transform="translate(-289.02 -43.235)" fill="#af745f"/>
    <path id="Tracé_151" data-name="Tracé 151" d="M2664.623,1230.278l-.017.052-.025-.047Z" transform="translate(-322.518 -43.349)" fill="#af745f"/>
    <path id="Tracé_152" data-name="Tracé 152" d="M2660.515,1230.179l-.037.037s-.029-.042-.028-.042l.037-.044Z" transform="translate(-319.296 -43.233)" fill="#af745f"/>
    <path id="Tracé_153" data-name="Tracé 153" d="M2544.671,1290.861a.1.1,0,0,1-.011.168A.11.11,0,0,1,2544.671,1290.861Z" transform="translate(-228.988 -90.586)" fill="#432f84"/>
    <path id="Tracé_154" data-name="Tracé 154" d="M2544.681,1287.862a.1.1,0,0,1,0,.164A.1.1,0,0,1,2544.681,1287.862Z" transform="translate(-228.997 -88.247)" fill="#432f84"/>
    <path id="Tracé_155" data-name="Tracé 155" d="M2458.262,1357.854c2.007.138,3.868.266,5.729.4.292.02.67.017.671.4,0,.481-.439.425-.748.4-2-.145-4-.442-6.015-.413-.327,0-.652-.126-.536-.5C2457.534,1357.591,2458.048,1357.9,2458.262,1357.854Z" transform="translate(-160.93 -142.785)" fill="#af745f"/>
    <path id="Tracé_156" data-name="Tracé 156" d="M2418.174,1354.669l5.693.44c.264.02.567.057.579.373.015.411-.37.436-.635.419-1.964-.125-3.927-.276-5.889-.428-.293-.023-.667-.08-.6-.47C2417.426,1354.374,2417.974,1354.774,2418.174,1354.669Z" transform="translate(-129.72 -140.314)" fill="#af745f"/>
    <path id="Tracé_157" data-name="Tracé 157" d="M2504.457,1361.825c-1.513-.393-3.332-.046-5.1-.38-.248-.047-.7.121-.637-.351.049-.37.455-.331.732-.292,1.894.263,3.8.148,5.7.231.337.015.757-.006.755.428,0,.473-.454.338-.756.362C2505.005,1361.835,2504.858,1361.825,2504.457,1361.825Z" transform="translate(-193.187 -145.101)" fill="#af745f"/>
    <path id="Tracé_158" data-name="Tracé 158" d="M2538.6,1363.892a.5.5,0,0,1,.606-.389c1.968.02,3.936.042,5.9.079.3.006.774-.056.759.393-.014.413-.457.251-.712.243A43.583,43.583,0,0,1,2538.6,1363.892Z" transform="translate(-224.289 -147.224)" fill="#af745f"/>
    <path id="Tracé_159" data-name="Tracé 159" d="M2747.866,1362.915c.123.011.469-.088.5.257.037.371-.321.319-.557.334-1.923.121-3.846.234-5.769.349-.271.016-.567-.022-.595-.331-.04-.45.351-.374.624-.388C2743.963,1363.044,2745.864,1363.2,2747.866,1362.915Z" transform="translate(-382.45 -146.763)" fill="#af745f"/>
    <path id="Tracé_160" data-name="Tracé 160" d="M2587.414,1365.157c-.075.281-.332.231-.529.23q-2.914-.008-5.827-.04c-.278,0-.7.061-.7-.321s.43-.313.706-.306q3.017.085,6.034.2C2587.227,1364.921,2587.393,1364.943,2587.414,1365.157Z" transform="translate(-256.846 -148.166)" fill="#af745f"/>
    <path id="Tracé_161" data-name="Tracé 161" d="M2782.96,1361.01c-.453-.191-1.193.293-1.231-.346-.027-.451.732-.269,1.136-.283a25.065,25.065,0,0,0,4.256-.365c.3-.062.772-.187.815.252.039.4-.419.428-.75.441A30.872,30.872,0,0,0,2782.96,1361.01Z" transform="translate(-413.858 -144.455)" fill="#af745f"/>
    <path id="Tracé_162" data-name="Tracé 162" d="M2701.617,1365.038q3.26-.106,6.52-.208c.192-.006.385.089.379.3a.4.4,0,0,1-.293.255c-2.2.015-4.4.011-6.6.011C2701.619,1365.276,2701.618,1365.157,2701.617,1365.038Z" transform="translate(-351.395 -148.26)" fill="#af745f"/>
    <path id="Tracé_163" data-name="Tracé 163" d="M2668.171,1366.113a47.7,47.7,0,0,1-7.329.024C2661.459,1365.636,2666.87,1365.545,2668.171,1366.113Z" transform="translate(-319.602 -148.956)" fill="#af745f"/>
    <path id="Tracé_164" data-name="Tracé 164" d="M2860.745,1353.382a15.139,15.139,0,0,1-6.127.727A30.608,30.608,0,0,1,2860.745,1353.382Z" transform="translate(-470.69 -139.334)" fill="#af745f"/>
    <path id="Tracé_165" data-name="Tracé 165" d="M2627.75,1365.914a33.234,33.234,0,0,1-7.006.052C2621.288,1365.547,2626.4,1365.46,2627.75,1365.914Z" transform="translate(-288.337 -148.868)" fill="#af745f"/>
    <path id="Tracé_166" data-name="Tracé 166" d="M2824.026,1358.774c-2.009-.142-3.962.691-6.19.4A12.932,12.932,0,0,1,2824.026,1358.774Z" transform="translate(-442.011 -143.387)" fill="#af745f"/>
    <path id="Tracé_167" data-name="Tracé 167" d="M2890.892,1348.759l4.5-.755A6.6,6.6,0,0,1,2890.892,1348.759Z" transform="translate(-498.974 -135.141)" fill="#af745f"/>
    <path id="Tracé_168" data-name="Tracé 168" d="M2924.421,1343.157l-3.39.915A6.6,6.6,0,0,1,2924.421,1343.157Z" transform="translate(-522.473 -131.361)" fill="#af745f"/>
    <path id="Tracé_169" data-name="Tracé 169" d="M2685.311,1230.888a.232.232,0,0,1,.17.01C2685.419,1230.993,2685.361,1231,2685.311,1230.888Z" transform="translate(-338.681 -43.815)" fill="#432c7e"/>
    <path id="Tracé_170" data-name="Tracé 170" d="M2833.848,1326.21c-.027.061-.04.156-.083.173s-.118-.043-.179-.069c.026-.061.039-.156.083-.173S2833.787,1326.184,2833.848,1326.21Z" transform="translate(-454.291 -118.092)" fill="#432c7e"/>
    <path id="Tracé_171" data-name="Tracé 171" d="M2899.166,1242.862q0,1.624-.006,3.247A6.079,6.079,0,0,1,2899.166,1242.862Z" transform="translate(-505.25 -53.161)" fill="#432c7e"/>
    <path id="Tracé_172" data-name="Tracé 172" d="M2899.047,1311.718c.435.7.117,1.471.218,2.2C2898.817,1313.223,2899.145,1312.45,2899.047,1311.718Z" transform="translate(-505.313 -106.848)" fill="#432c7e"/>
    <path id="Tracé_173" data-name="Tracé 173" d="M2899.3,1271.915c.059.237.077.464-.163.623C2899.144,1272.319,2899.075,1272.079,2899.3,1271.915Z" transform="translate(-505.398 -75.813)" fill="#432c7e"/>
    <path id="Tracé_174" data-name="Tracé 174" d="M2909.137,1231.98l.193-.214Z" transform="translate(-513.199 -44.509)" fill="#432f84"/>
    <path id="Tracé_175" data-name="Tracé 175" d="M2449.881,1268.69c1.514-1.693,3.389-1.333,5.163-1.291.9.021,1.2-.3,1.08-1.134a.6.6,0,0,1,0-.219c.089-.376-.257-1.03.436-1.032s.423.652.43,1.028c.03,1.573.017,3.147.008,4.721,0,.31.091.731-.4.756-.584.029-.454-.447-.472-.787-.01-.18.046-.362.044-.543,0-.416.839-.777-.078-1.3a1.892,1.892,0,0,0-1.266-.237C2453.2,1268.75,2451.569,1268.69,2449.881,1268.69Z" transform="translate(-155.114 -70.433)" fill="#402b83"/>
  </g>
</svg>
