<svg xmlns="http://www.w3.org/2000/svg" width="48.058" height="46.391" viewBox="0 0 48.058 46.391">
  <g id="Groupe_8" data-name="Groupe 8" transform="translate(1747.964 -191.301)" opacity="0.3">
    <path id="Tracé_23" data-name="Tracé 23" d="M-1654.133,314.639a13.413,13.413,0,0,1-2.114,7.08.634.634,0,0,0-.017.777c1.208,2.06,2.4,4.132,3.594,6.2.215.37.4.739.121,1.15s-.695.4-1.151.319c-1.1-.2-2.2-.375-3.307-.516a.85.85,0,0,0-.64.253c-.625.71-1.2,1.459-1.806,2.189-.573.694-1.171.644-1.627-.141-.812-1.4-1.625-2.792-2.417-4.2a.483.483,0,0,0-.646-.282,12.9,12.9,0,0,1-6.575,0,.482.482,0,0,0-.645.283c-.783,1.393-1.587,2.774-2.389,4.156-.488.841-1.083.888-1.69.142-.586-.72-1.158-1.454-1.771-2.15a.846.846,0,0,0-.64-.251c-1.157.154-2.308.351-3.459.549a.888.888,0,0,1-.967-.312.9.9,0,0,1,.011-1.059c1.226-2.11,2.439-4.226,3.674-6.33a.636.636,0,0,0-.02-.777,13.258,13.258,0,0,1,9.027-20.166,13.247,13.247,0,0,1,15.171,10.687C-1654.277,313.031-1654.225,313.839-1654.133,314.639Zm-1.721-.026a11.55,11.55,0,0,0-11.6-11.547,11.561,11.561,0,0,0-11.551,11.6,11.577,11.577,0,0,0,11.6,11.552A11.562,11.562,0,0,0-1655.854,314.614ZM-1680.03,328.3c.877-.137,1.628-.217,2.361-.381a1.281,1.281,0,0,1,1.469.548c.443.6.944,1.168,1.46,1.8l2.006-3.473a14.089,14.089,0,0,1-4.541-3.266Zm19.9,1.966c.534-.652,1.055-1.245,1.525-1.876a1.206,1.206,0,0,1,1.351-.481c.762.151,1.535.248,2.41.384l-2.74-4.777a13.921,13.921,0,0,1-4.55,3.278Z" transform="translate(-56.478 -94.883)" fill="#134888"/>
    <path id="Tracé_24" data-name="Tracé 24" d="M-1617.928,199.371a2.179,2.179,0,0,0-.25-.339q-1.056-1.024-2.127-2.032a.908.908,0,0,1-.381-.991.939.939,0,0,1,.91-.627c.989-.114,1.977-.25,2.958-.416a.773.773,0,0,0,.462-.383c.45-.869.874-1.751,1.291-2.637a.916.916,0,0,1,.846-.644.926.926,0,0,1,.838.657c.407.871.842,1.729,1.249,2.6a.652.652,0,0,0,.6.442c.99.1,1.974.265,2.961.4.395.052.751.229.784.621a1.31,1.31,0,0,1-.294.907c-.68.728-1.42,1.4-2.149,2.083a.616.616,0,0,0-.226.666c.207.956.364,1.922.536,2.885a.92.92,0,0,1-.309,1.019.9.9,0,0,1-1.058-.036c-.858-.47-1.732-.914-2.585-1.393a.632.632,0,0,0-.706,0c-.854.478-1.726.923-2.584,1.4a.887.887,0,0,1-1.057.017.914.914,0,0,1-.289-1.019C-1618.3,201.518-1618.129,200.486-1617.928,199.371Zm6.067,1.977c-.124-.708-.212-1.333-.349-1.947a1.14,1.14,0,0,1,.349-1.16c.459-.454.875-.952,1.3-1.421-.523-.073-1.114-.177-1.709-.232a1.257,1.257,0,0,1-1.151-.867c-.219-.541-.509-1.054-.808-1.662-.292.606-.569,1.085-.759,1.6a1.42,1.42,0,0,1-1.416.971c-.522.031-1.039.136-1.447.193.411.465.821.972,1.277,1.433a1.121,1.121,0,0,1,.341,1.115c-.132.622-.227,1.252-.354,1.972.647-.343,1.2-.614,1.731-.923a1.145,1.145,0,0,1,1.258,0C-1613.052,200.728-1612.49,201.011-1611.86,201.348Z" transform="translate(-109.682)" fill="#134888"/>
    <path id="Tracé_25" data-name="Tracé 25" d="M-1486.932,244.85a1.13,1.13,0,0,1,.925.7c.414.867.854,1.722,1.243,2.6a.841.841,0,0,0,.779.536c.955.111,1.9.26,2.858.381.383.048.712.232.737.6a1.33,1.33,0,0,1-.3.907c-.68.728-1.419,1.4-2.147,2.082a.614.614,0,0,0-.229.664c.208.955.365,1.921.537,2.883a.9.9,0,0,1-.314,1.016.936.936,0,0,1-1.062-.042c-.856-.474-1.715-.944-2.59-1.379a.816.816,0,0,0-.638,0c-.891.444-1.763.925-2.637,1.4a.9.9,0,0,1-1.061-.009.888.888,0,0,1-.28-.974c.2-.974.381-1.954.527-2.937a.838.838,0,0,0-.219-.616c-.685-.7-1.4-1.369-2.111-2.046a.893.893,0,0,1-.37-.945.929.929,0,0,1,.891-.657c.969-.133,1.943-.242,2.906-.407a.889.889,0,0,0,.555-.413c.461-.881.854-1.8,1.321-2.676A3.193,3.193,0,0,1-1486.932,244.85Zm2.486,10.152c-.118-.68-.18-1.28-.332-1.855a1.246,1.246,0,0,1,.448-1.366c.433-.395.814-.846,1.246-1.3-.648-.09-1.255-.194-1.866-.252a1.1,1.1,0,0,1-.985-.7c-.261-.584-.555-1.154-.878-1.818-.319.657-.607,1.219-.867,1.793a1.127,1.127,0,0,1-1.021.731c-.608.05-1.211.161-1.775.241.426.473.824.959,1.272,1.4a1.19,1.19,0,0,1,.365,1.208c-.131.6-.221,1.218-.343,1.913.593-.314,1.113-.545,1.586-.851a1.317,1.317,0,0,1,1.575.012C-1485.547,254.45-1485.031,254.689-1484.446,255Z" transform="translate(-219.518 -46.161)" fill="#134888"/>
    <path id="Tracé_26" data-name="Tracé 26" d="M-1745.794,257.085c.181-1,.388-2.066.551-3.135a.823.823,0,0,0-.193-.614c-.684-.7-1.4-1.373-2.111-2.048a.913.913,0,0,1-.376-.993.956.956,0,0,1,.916-.631c.868-.113,1.736-.236,2.607-.331a.968.968,0,0,0,.924-.643c.345-.84.785-1.64,1.175-2.462a.875.875,0,0,1,.8-.616.888.888,0,0,1,.849.629c.406.853.845,1.69,1.224,2.555a.835.835,0,0,0,.776.541c.938.108,1.872.252,2.808.373a.848.848,0,0,1,.8.611.884.884,0,0,1-.341.955c-.709.677-1.429,1.344-2.112,2.048a.9.9,0,0,0-.216.663c.146.984.38,1.955.506,2.941a1.115,1.115,0,0,1-.293.891,1.081,1.081,0,0,1-.937.053c-.917-.427-1.8-.932-2.683-1.427a.636.636,0,0,0-.706-.005q-1.325.745-2.676,1.442A.835.835,0,0,1-1745.794,257.085Zm8.145-5.927c-.686-.1-1.252-.228-1.824-.258a1.249,1.249,0,0,1-1.2-.869c-.222-.542-.509-1.057-.805-1.659-.328.671-.62,1.234-.881,1.811a1.1,1.1,0,0,1-.986.7c-.619.059-1.234.167-1.83.251.473.5.908.988,1.367,1.447a1.063,1.063,0,0,1,.33,1.067c-.141.637-.234,1.285-.36,2,.64-.342,1.208-.625,1.755-.945a1.094,1.094,0,0,1,1.208,0c.544.317,1.107.6,1.752.947-.12-.686-.2-1.277-.332-1.859a1.233,1.233,0,0,1,.426-1.333C-1738.577,252.078-1738.163,251.648-1737.65,251.159Z" transform="translate(0 -46.819)" fill="#134888"/>
    <path id="Tracé_27" data-name="Tracé 27" d="M-1632.669,346.619a8.167,8.167,0,0,1,8.167-8.12,8.168,8.168,0,0,1,8.133,8.206,8.171,8.171,0,0,1-8.194,8.1A8.169,8.169,0,0,1-1632.669,346.619Zm8.416,6.491a6.446,6.446,0,0,0,6.2-6.714,6.453,6.453,0,0,0-6.754-6.206,6.457,6.457,0,0,0-6.169,6.739A6.448,6.448,0,0,0-1624.253,353.11Z" transform="translate(-99.388 -126.89)" fill="#134888"/>
    <path id="Tracé_28" data-name="Tracé 28" d="M-1599.481,383.8c1.212-1.214,2.375-2.382,3.54-3.548.612-.613,1.039-.7,1.456-.311s.312.9-.283,1.5q-2.06,2.06-4.121,4.12c-.659.656-1.169.585-1.635-.221s-.927-1.605-1.383-2.412c-.319-.563-.232-1.044.221-1.3s.9-.077,1.229.484C-1600.139,382.655-1599.825,383.2-1599.481,383.8Z" transform="translate(-125.741 -162.408)" fill="#134888"/>
  </g>
</svg>
