<svg xmlns="http://www.w3.org/2000/svg" width="27.949" height="27.948" viewBox="0 0 27.949 27.948">
  <g id="Groupe_23" data-name="Groupe 23" transform="translate(0)">
    <path id="Tracé_65" data-name="Tracé 65" d="M-2246.106,1422.281c0-.337,0-.637,0-.936a.981.981,0,0,1,1-1.008.985.985,0,0,1,.993,1.016c0,.3,0,.6,0,.91h10.982c0-.3,0-.6,0-.893a.984.984,0,0,1,1.006-1.033.986.986,0,0,1,.987,1.022c0,.29,0,.58,0,.919.425,0,.839-.029,1.246.007a9.3,9.3,0,0,1,1.748.245,4.929,4.929,0,0,1,3.492,4.689q.006,8.063,0,16.125a4.97,4.97,0,0,1-4.949,4.936q-9.029.006-18.059,0a4.97,4.97,0,0,1-4.935-4.949q-.005-8.032,0-16.063a5,5,0,0,1,4.88-4.986C-2247.194,1422.27-2246.674,1422.281-2246.106,1422.281Zm-4.494,8.035v.316q0,6.252,0,12.5a3.013,3.013,0,0,0,3.16,3.151q8.825,0,17.65,0a3.625,3.625,0,0,0,.863-.1,2.99,2.99,0,0,0,2.282-3.034q0-6.268,0-12.536v-.3Zm.013-2.061h23.936c0-.4.026-.771,0-1.14a2.936,2.936,0,0,0-1.708-2.532,6.467,6.467,0,0,0-2.772-.29c0,.341,0,.641,0,.942a1,1,0,0,1-1,1.018,1.006,1.006,0,0,1-.992-1.026c0-.3,0-.6,0-.917h-10.982c0,.307,0,.6,0,.885a1.008,1.008,0,0,1-.993,1.057,1.009,1.009,0,0,1-1-1.05c0-.3,0-.592,0-.892-.6,0-1.146-.023-1.694.005a2.859,2.859,0,0,0-2.34,1.391A4.092,4.092,0,0,0-2250.587,1428.255Z" transform="translate(2252.595 -1420.337)" fill="#8daf39"/>
    <path id="Tracé_66" data-name="Tracé 66" d="M-2152.244,1591.552c1.889-1.888,3.733-3.733,5.581-5.575a1,1,0,0,1,1.726.35,1.009,1.009,0,0,1-.312,1.073q-1.648,1.637-3.287,3.284-1.456,1.455-2.911,2.91a1.015,1.015,0,0,1-1.6.006q-1.755-1.752-3.505-3.507a.982.982,0,0,1-.2-1.2.943.943,0,0,1,1.074-.5,1.379,1.379,0,0,1,.6.351c.872.848,1.726,1.714,2.587,2.573C-2152.414,1591.4-2152.331,1591.471-2152.244,1591.552Z" transform="translate(2164.855 -1571.851)" fill="#8daf39"/>
  </g>
</svg>
