<svg xmlns="http://www.w3.org/2000/svg" width="20.976" height="14.007" viewBox="0 0 20.976 14.007">
  <path id="Tracé_62" data-name="Tracé 62" d="M-667.791-240.524a3.271,3.271,0,0,1-.281.489,1.048,1.048,0,0,1-.854.366h-18.657a1.092,1.092,0,0,1-1.155-.839,1.284,1.284,0,0,1-.027-.3q0-5.857,0-11.714a1.081,1.081,0,0,1,1.143-1.142q3.912,0,7.823,0c3.55,0,7.1.008,10.649-.007a1.246,1.246,0,0,1,1.36.861Zm-1.4.032c-.055-.074-.089-.124-.127-.17l-3.389-4.185c-.344-.424-.688-.848-1.029-1.274a.389.389,0,0,1-.027-.525.372.372,0,0,1,.457-.13.773.773,0,0,1,.272.236q2.13,2.623,4.254,5.251c.044.055.095.105.16.178v-11.214c-.075.053-.129.09-.181.129l-8.253,6.191a1.916,1.916,0,0,1-2.452,0l-8.239-6.178c-.061-.046-.125-.089-.2-.141v11.217c.066-.075.111-.124.153-.175l3.375-4.17.967-1.193a.355.355,0,0,1,.436-.134.529.529,0,0,1,.275.312.579.579,0,0,1-.14.4q-1.793,2.236-3.6,4.46l-.9,1.115Zm-18.068-12.354c.063.051.1.081.131.107q4.093,3.071,8.187,6.141a1.081,1.081,0,0,0,1.33-.01q4.1-3.068,8.19-6.139a.48.48,0,0,1,.126-.047l-.057-.052Z" transform="translate(688.767 253.676)" fill="#fff"/>
</svg>
