<svg xmlns="http://www.w3.org/2000/svg" width="55.096" height="55.198" viewBox="0 0 55.096 55.198">
  <g id="Groupe_17" data-name="Groupe 17" transform="translate(1635.24 698.25)">
    <path id="Tracé_58" data-name="Tracé 58" d="M-1586.277-643.052h-25.07a1.707,1.707,0,0,0-.29-.109,7.124,7.124,0,0,1-4.63-10.961,6.843,6.843,0,0,1,5.742-3.164c.635-.019,1.272,0,1.9,0v-1.782c-1.458,0-2.872,0-4.285,0a2.561,2.561,0,0,1-2.716-3.2q.849-5.2,1.739-10.395a1.076,1.076,0,0,0-.23-.928q-1.563-2.057-3.1-4.133a19.24,19.24,0,0,0-6.745-5.732c-.181-.093-.37-.168-.591-.268-.01.176-.02.265-.02.354q0,8.839,0,17.678a2.63,2.63,0,0,0,.049.48q1.148,6.157,2.3,12.313c.167.9.153.9,1.067.925A1.845,1.845,0,0,1-1619.22-650c0,.359,0,.719,0,1.078a1.857,1.857,0,0,1-.756,1.534c-.516.388-1.025.787-1.558,1.149a8.2,8.2,0,0,1-10.366-.959,11.314,11.314,0,0,1-1.387-14.369c.118-.173.23-.35.349-.531l-.922-1.167c-.312-.394-.642-.775-.933-1.183a2.168,2.168,0,0,1,.836-3.309.72.72,0,0,0,.486-.8c-.012-4.33-.008-8.66-.008-12.989v-.591c-.1-.037-.163-.064-.228-.084a1.8,1.8,0,0,1-1.523-2.023q0-2.56,0-5.12a8.833,8.833,0,0,1,5.654-8.265c.675-.262,1.393-.414,2.09-.616h1.614c.652.318,1.238.74,1.265,1.523a.841.841,0,0,0,.636.837q6.085,2.693,12.161,5.407a5.246,5.246,0,0,1,3.074,3.58,5.184,5.184,0,0,1-.25,3.371,1.338,1.338,0,0,0,.145,1.328c.585.982,1.085,2.017,1.572,3.053.159.338.306.493.7.486,1.524-.025,3.048-.009,4.572-.012.171,0,.341-.024.511-.036.018-.127.031-.2.037-.268a3.541,3.541,0,0,1,4.531-3.1,3.551,3.551,0,0,1,2.566,3.4c.011,1.18,0,2.361,0,3.551a1.894,1.894,0,0,1,1.807,1.792h.6q2.205,0,4.41,0a1.861,1.861,0,0,1,2.083,2.1c0,.476,0,.952,0,1.464h1.475a1.85,1.85,0,0,1,2.078,2.045q.011,3.314,0,6.628a1.826,1.826,0,0,1-2.031,2.031c-1.488.006-2.976,0-4.464,0-.19,0-.379.018-.574.028v1.753c.663,0,1.287-.012,1.911,0a7.1,7.1,0,0,1,6.673,5.223c.083.308.161.617.241.926v1.941a1.216,1.216,0,0,0-.1.239,7.005,7.005,0,0,1-4.209,5.329A15.477,15.477,0,0,1-1586.277-643.052Zm-40.093-53.342a6.593,6.593,0,0,0-4.478,1.551,7.31,7.31,0,0,0-2.572,6.534.684.684,0,0,0,.316.428c1.035.643,2.079,1.27,3.127,1.891a1.866,1.866,0,0,1,.992,1.669c.023.951.086,1.9.129,2.853q.253,5.517.5,11.034c.064,1.392.135,2.784.2,4.169h1.747a1.79,1.79,0,0,0,.028-.2q0-8.867-.007-17.733a.758.758,0,0,0-.278-.515,3.553,3.553,0,0,1,0-5.8.661.661,0,0,0,.275-.409C-1626.364-692.741-1626.37-694.553-1626.37-696.394Zm12.956,20.746c.071-.4.12-.694.175-.985.316-1.663.77-2.04,2.457-2.041H-1609c-.122-.283-.194-.461-.275-.634a17.214,17.214,0,0,0-5.368-6.549,18.348,18.348,0,0,0-9.952-3.453,1.542,1.542,0,0,0-1.731,1.667,1.614,1.614,0,0,0,1.215,1.694,21.075,21.075,0,0,1,9.477,7.338C-1614.927-677.644-1614.2-676.695-1613.414-675.649Zm15.536,14.726c.066.037.081.053.1.053,2.722.006,5.444.015,8.166.008a.807.807,0,0,0,.471-.2q2.6-2.212,5.182-4.446a.708.708,0,0,0,.254-.43c.027-.658.012-1.317.012-2h-14.182Zm8.8,13.975a3.466,3.466,0,0,1-2.718,1.22,3.509,3.509,0,0,1-2.555-1.259c-1.79,1.714-3.584,1.706-5.349-.013a3.338,3.338,0,0,1-3.2,1.233,3.416,3.416,0,0,1-2.671-2.241,4.357,4.357,0,0,1-4.649,2.213,4.243,4.243,0,0,1-3.557-3.326,4.342,4.342,0,0,1,1.759-4.689,4.327,4.327,0,0,1,4.864-.17,1.83,1.83,0,0,0,.845.241q8.338.021,16.676.01h.546V-655.5h-.739q-10.006,0-20.011,0-.484,0-.967.027a5.329,5.329,0,0,0-4.812,6.048,5.272,5.272,0,0,0,5.354,4.558q10.355.018,20.71,0c.155,0,.31-.022.478-.034Zm-39.74-17.125a3.6,3.6,0,0,0-.278.254c-.77.9-1.566,1.777-2.3,2.7a9.374,9.374,0,0,0-.761,10.594,7,7,0,0,0,4.256,3.628c.655.173,1.341.225,2.125.349C-1626.812-652.483-1627.811-658.242-1628.823-664.073Zm41.605,8.588v10.637a5.144,5.144,0,0,0,4.485-2.553,5.07,5.07,0,0,0-.062-5.647A5.049,5.049,0,0,0-1587.218-655.485Zm-19.617-17.8h-5.134l-1.163,7.025h6.3Zm16.009,14.255h-15.935v1.695h15.935Zm-14.125,8.826h15.85v-1.7h-16.205Zm-1.907-10.651v-3.552c-2.119,0-4.2-.006-6.274.014a.505.505,0,0,0-.356.322c-.148.738-.26,1.483-.371,2.227-.092.617.186.977.818.982C-1611-660.844-1608.956-660.854-1606.858-660.854Zm-20.194-3.524,3.042,17.509c.791-.5,1.473-.976,2.2-1.371a1.5,1.5,0,0,0,.717-1.932h-.726a1.792,1.792,0,0,1-2.019-1.647c-.471-2.463-.927-4.928-1.39-7.392q-.486-2.582-.977-5.167Zm27.31-12.433c-.069-.039-.084-.055-.1-.055-3.741-.006-7.481-.014-11.222,0a.476.476,0,0,0-.348.288c-.107.466-.16.945-.237,1.449h11.907Zm-7.077,26.622a2.662,2.662,0,0,0-2.673-2.654,2.658,2.658,0,0,0-2.619,2.706,2.646,2.646,0,0,0,2.644,2.621A2.652,2.652,0,0,0-1606.82-650.189Zm-24.836-31.992v14.17h1.618c-.215-4.743-.429-9.448-.643-14.17Zm31.926,8.889h-5.237v3.476h5.237Zm-.011,5.366h-5.235v3.475h5.235Zm-18.056-21.723a19.692,19.692,0,0,1,7.252,5.126,3.5,3.5,0,0,0-1.969-4.306c-.6-.276-1.206-.538-1.81-.806l-2.952-1.311Zm23.393,19.84v-3.484h-3.461v3.484Zm-24.52-21.876-5.624-2.5v2.992l5.083.864Zm21.019,16.545h1.732c0-1.288.024-2.541-.018-3.792a1.683,1.683,0,0,0-.382-.865,1.721,1.721,0,0,0-2.083-.471,1.49,1.49,0,0,0-.933,1.561,1.9,1.9,0,0,1,1.683,2.223C-1597.9-676.053-1597.9-675.624-1597.9-675.139Zm-7.075,14.25h5.237V-662.6h-5.237Zm12.44-8.93h5.25v-1.675h-5.25Zm-39.209,6.317c.544-.632,1.065-1.2,1.536-1.8a3.748,3.748,0,0,0,.357-.889c-1.15,0-2.13-.02-3.109.009-.463.014-.611.373-.324.751C-1632.8-664.8-1632.29-664.177-1631.748-663.5Zm48.03.159-2.844,2.444h2.844Zm-49.677-22.549v1.839h2.584C-1630.873-684.472-1631.946-685.227-1633.4-685.892Zm37.682,37.557h-2.633a1.384,1.384,0,0,0,1.314.806A1.375,1.375,0,0,0-1595.714-648.335Zm2.675-.015a1.464,1.464,0,0,0,1.424.818,1.322,1.322,0,0,0,1.229-.818Zm-8.025.023h-2.58A1.45,1.45,0,0,0-1601.064-648.326Z" fill="#8daf39"/>
    <path id="Tracé_59" data-name="Tracé 59" d="M-1287.337-369.048a.865.865,0,0,1-.887.868.9.9,0,0,1-.9-.867.9.9,0,0,1,.926-.9A.868.868,0,0,1-1287.337-369.048Z" transform="translate(-296.363 -281.114)" fill="#8daf39"/>
    <path id="Tracé_60" data-name="Tracé 60" d="M-1460.394-369.075a.889.889,0,0,1-.884.885.885.885,0,0,1-.915-.9.893.893,0,0,1,.909-.862A.9.9,0,0,1-1460.394-369.075Z" transform="translate(-148.172 -281.103)" fill="#8daf39"/>
  </g>
</svg>
