<svg xmlns="http://www.w3.org/2000/svg" width="62.477" height="46.862" viewBox="0 0 62.477 46.862">
  <g id="Groupe_13" data-name="Groupe 13" transform="translate(1838.835 150.595)">
    <path id="Tracé_44" data-name="Tracé 44" d="M-1776.358-126.93c-.124-.92-.263-1.839-.369-2.762-.247-2.137-.395-4.288-.738-6.409a5.7,5.7,0,0,0-5.683-4.731q-5.336-.015-10.672.007a.8.8,0,0,1-.873-.532,12.718,12.718,0,0,0-3.78-4.707.945.945,0,0,1-.318-.636c-.035-.934-.009-1.87-.017-2.8a.956.956,0,0,0-1.084-1.086q-4.269-.009-8.537,0c-.76,0-1.1.354-1.105,1.129-.006.893,0,1.786,0,2.726h-12.691c0-.877,0-1.763,0-2.649s-.32-1.206-1.21-1.207q-4.147,0-8.294,0c-.916,0-1.223.318-1.225,1.255a15.153,15.153,0,0,1-.037,2.737c-.173.914-1.207,1.211-1.792,1.857a15.077,15.077,0,0,0-3.7,7.811,21.006,21.006,0,0,0,.906,11.093,12.822,12.822,0,0,0,2.824,4.513c1.149,1.173,2.3,2.376,3.932,1.969-.447.535-1,1.218-1.585,1.869-.09.1-.344.071-.522.072-1.565,0-3.131,0-4.7,0-.851,0-1.184.329-1.185,1.171q-.005,3.72,0,7.44c0,.8.345,1.139,1.156,1.141q3.415.006,6.83,0a.652.652,0,0,1,.681.348,6.78,6.78,0,0,0,11.573.631c.069-.094.143-.184.2-.263a19.894,19.894,0,0,0,1.574,1.627,6.758,6.758,0,0,0,10.23-1.878.779.779,0,0,1,.794-.47q5.488.024,10.977,0a.791.791,0,0,1,.808.447,6.528,6.528,0,0,0,5.965,3.451,6.549,6.549,0,0,0,5.885-3.488.7.7,0,0,1,.7-.411c1.24.019,2.48-.016,3.719.018a1.4,1.4,0,0,0,1.349-.618Zm-56.6-16.8v2.232q0,5.123,0,10.245c0,.675.306,1.076.845,1.142.653.079,1.1-.369,1.1-1.131q0-6.4,0-12.807v-.653h30.257c0,1.624-.007,3.207,0,4.79a.946.946,0,0,0,.967,1.022.944.944,0,0,0,.973-1.015c.013-.915,0-1.829,0-2.744v-1.072c5.452,4.975,4.9,17.355,0,21.294v-.692q0-4.391,0-8.782c0-.757-.453-1.206-1.106-1.123-.537.069-.837.47-.838,1.149q0,4.94,0,9.879v.629h-30.257c0-1.551,0-3.055,0-4.558,0-.832-.338-1.256-.987-1.248s-.959.426-.96,1.275c0,1.151,0,2.3,0,3.5C-1837.894-126.5-1838.366-138.747-1832.957-143.729Zm40.05,28.264v-23.412c3.334,0,6.624,0,9.914,0a3.486,3.486,0,0,1,.721.111,3.594,3.594,0,0,1,2.755,2.806h-9.509c-1.933,0-1.971.035-1.968,1.977a18.231,18.231,0,0,0,.085,4.128,21.205,21.205,0,0,0,1.79,3.781,1.317,1.317,0,0,0,1.377.855c1.5-.038,3-.012,4.553-.012,0,.907,0,1.755,0,2.6,0,.928.185,1.165,1.11,1.361,1.051.223,2.1.462,3.16.625.487.075.624.245.62.73-.022,3.231-.011,6.463-.011,9.695v.563h-2.949c.2-3.151-.936-5.606-3.762-7.026S-1790.485-117.521-1792.907-115.465Zm-40.065,5.823a21.859,21.859,0,0,1,.165-2.466,8.744,8.744,0,0,1,13.592-5.688c.8.542.987.54,1.8-.013a8.747,8.747,0,0,1,13.444,5.065,6.41,6.41,0,0,1,.18,3.1h-1.861c.191-3.258-1-5.805-3.99-7.121-3.512-1.545-6.424-.417-8.695,2.571a6.888,6.888,0,0,0-7.961-2.881c-3.071,1.019-4.53,3.315-4.719,7.437Zm54.537-17.529h-.685c-2.295,0-4.593-.073-6.883.031-1.118.051-1.764-.24-2.113-1.322-.221-.686-.795-1.294-.884-1.98a27.48,27.48,0,0,1-.041-3.527h9.849C-1778.94-131.7-1778.691-129.47-1778.435-127.172Zm-9.663,11.709a4.926,4.926,0,0,1,4.908,4.864,4.927,4.927,0,0,1-4.818,4.894,4.925,4.925,0,0,1-4.938-4.835A4.928,4.928,0,0,1-1788.1-115.463Zm-19.489,4.879a4.928,4.928,0,0,1-4.834,4.878,4.931,4.931,0,0,1-4.922-4.851,4.928,4.928,0,0,1,4.865-4.907A4.926,4.926,0,0,1-1807.587-110.584Zm-11.71,0a4.928,4.928,0,0,1-4.892,4.882,4.923,4.923,0,0,1-4.865-4.846,4.928,4.928,0,0,1,4.861-4.912A4.926,4.926,0,0,1-1819.3-110.588Zm24.386-4.862v5.793h-6.855a10.959,10.959,0,0,0-1.108-5.793Zm-.03-8.56v6.6c-3.028,0-6.012,0-9,0a.492.492,0,0,1-.333-.1c-.571-.645-1.125-1.3-1.6-1.857,1.5,0,3.229-.074,4.947.025a3.8,3.8,0,0,0,3.018-1.124,13.7,13.7,0,0,0,1.209-1.2C-1796.084-122.42-1795.531-123.216-1794.941-124.01Zm-5.824-22.717h-6.78V-148.6h6.78Zm-30.219-1.873h6.78v1.876h-6.78Zm-5.861,33.169h3.08a11.019,11.019,0,0,0-1.125,5.785h-1.955Zm58.512-7.1c-.884-.171-1.737-.327-2.585-.511-.122-.026-.3-.185-.3-.29-.029-.62-.014-1.241-.014-1.842h2.9Z" transform="translate(0)" fill="#8daf39"/>
    <path id="Tracé_45" data-name="Tracé 45" d="M-1633.565-83.194a7.787,7.787,0,0,0,7.59-5.471,6.169,6.169,0,0,0-.847-5.245c-1.912-2.8-3.908-5.543-5.883-8.3a.994.994,0,0,0-1.728,0c-1.963,2.741-3.972,5.452-5.845,8.253-2.313,3.458-.9,7.942,3.018,9.9A8.024,8.024,0,0,0-1633.565-83.194Zm0-16.844c1.76,2.488,3.5,4.844,5.121,7.273a4.448,4.448,0,0,1-.408,5.431,6.224,6.224,0,0,1-6.573,1.9c-3.384-1.034-5.432-4.753-2.768-8.135.917-1.164,1.727-2.41,2.588-3.617C-1634.944-98.109-1634.284-99.028-1633.56-100.038Z" transform="translate(-182.801 -40.077)" fill="#8daf39"/>
    <path id="Tracé_46" data-name="Tracé 46" d="M-1700.133-64.8a.954.954,0,0,0,.994-.935.953.953,0,0,0-.979-1.009.953.953,0,0,0-.964.964A.955.955,0,0,0-1700.133-64.8Z" transform="translate(-99.668 -70.19)" fill="#8daf39"/>
    <path id="Tracé_47" data-name="Tracé 47" d="M-1781.993,82.824a2.9,2.9,0,0,0,2.918-2.947,2.9,2.9,0,0,0-2.961-2.9,2.9,2.9,0,0,0-2.889,2.915A2.906,2.906,0,0,0-1781.993,82.824Zm-.976-2.9a1.017,1.017,0,0,1,.945-.995,1.017,1.017,0,0,1,.994.946,1.017,1.017,0,0,1-.945.995A1.018,1.018,0,0,1-1782.968,79.923Z" transform="translate(-6.07 -190.483)" fill="#8daf39"/>
    <path id="Tracé_48" data-name="Tracé 48" d="M-1632.313,82.824a2.9,2.9,0,0,0,2.947-2.918,2.9,2.9,0,0,0-2.932-2.932,2.9,2.9,0,0,0-2.917,2.886A2.905,2.905,0,0,0-1632.313,82.824Zm.005-3.9a1.016,1.016,0,0,1,.987.953,1.017,1.017,0,0,1-.953.987,1.018,1.018,0,0,1-.987-.953A1.017,1.017,0,0,1-1632.308,78.928Z" transform="translate(-180.175 -190.484)" fill="#8daf39"/>
    <path id="Tracé_49" data-name="Tracé 49" d="M-1563.356,79.9a2.905,2.905,0,0,0,2.946,2.92,2.905,2.905,0,0,0,2.9-2.962,2.9,2.9,0,0,0-2.915-2.888A2.9,2.9,0,0,0-1563.356,79.9Zm2.931.965a1.018,1.018,0,0,1-.976-.965,1.017,1.017,0,0,1,.964-.976,1.017,1.017,0,0,1,.975.965A1.017,1.017,0,0,1-1560.425,80.869Z" transform="translate(-263.745 -190.483)" fill="#8daf39"/>
    <path id="Tracé_50" data-name="Tracé 50" d="M-1599.286-35.643a3.907,3.907,0,0,0,3.8,3.7.966.966,0,0,0,1.074-.915.958.958,0,0,0-.957-1.032,1.994,1.994,0,0,1-1.964-1.877c-.086-.732-.459-1.1-1.068-1.046C-1598.977-36.761-1599.3-36.339-1599.286-35.643Z" transform="translate(-220.982 -95.239)" fill="#8daf39"/>
  </g>
</svg>
