<svg xmlns="http://www.w3.org/2000/svg" width="54.608" height="55.198" viewBox="0 0 54.608 55.198">
  <g id="Groupe_12" data-name="Groupe 12" transform="translate(2237.453 -252.609)">
    <path id="Tracé_36" data-name="Tracé 36" d="M-2200.473,458.33a7.383,7.383,0,0,1-.782-1.166c-1.516-3.541-3-7.095-4.5-10.644-.365-.867-.453-.923-1.408-.923-.808,0-1.619-.039-2.424.019a1.726,1.726,0,0,0-.991.4c-1.885,1.768-4.254,1.3-5.278-1.069-1.087-2.517-2.178-5.032-3.246-7.557a1.089,1.089,0,0,0-1.141-.768c-2.3.021-4.6.017-6.9.005a2.347,2.347,0,0,0-2.366,1.6q-.86,2.088-1.738,4.168a1.133,1.133,0,0,1-1.245.805,1.075,1.075,0,0,1-.819-1.483c.654-1.629,1.3-3.266,2.048-4.852a4.367,4.367,0,0,1,3.37-2.4l-1.245-2.818c-1.078-2.442-2.166-4.88-3.226-7.331a1.1,1.1,0,0,0-1.155-.756c-.88.023-1.76.015-2.641,0-.831-.012-1.306-.431-1.3-1.114s.506-1.074,1.333-1.078c.9,0,1.8-.012,2.695,0a3.086,3.086,0,0,1,3,1.967c1.563,3.542,3.135,7.079,4.687,10.626a.653.653,0,0,0,.709.475c1.562-.023,3.126,0,4.688-.012a3.218,3.218,0,0,1,3.261,2.155c1.056,2.511,2.149,5.006,3.228,7.507.415.961,1.028,1.086,1.765.338a3.192,3.192,0,0,1,2.408-1.008c.952.01,1.9,0,2.856,0a3.02,3.02,0,0,1,2.967,2q2.345,5.546,4.673,11.1c.381.905.272,1.258-.536,1.808Z" transform="translate(0 -150.523)" fill="#8daf39"/>
    <path id="Tracé_37" data-name="Tracé 37" d="M-2103.494,267.156l-1.953,1.968,17.717,20.571c.74-.737,1.44-1.45,2.157-2.146a1.088,1.088,0,0,1,1.623-.02,1.053,1.053,0,0,1-.092,1.542c-.72.727-1.465,1.429-2.287,2.227.352.311.637.581.941.827a1.289,1.289,0,0,0,1.8-.127q1.507-1.466,2.973-2.973a1.3,1.3,0,0,0-.027-2c-.475-.491-.968-.963-1.448-1.449a1.11,1.11,0,0,1-.1-1.587,1.086,1.086,0,0,1,1.589.005,23.537,23.537,0,0,1,1.781,1.8,3.441,3.441,0,0,1-.148,4.658q-1.548,1.615-3.163,3.165a3.391,3.391,0,0,1-4.888-.049c-1.805-1.9-3.549-3.86-5.266-5.841q-7.2-8.31-14.356-16.657c-.127-.148-.264-.287-.436-.473-1.02,1.026-2.015,2.031-3.014,3.031q-3.887,3.889-7.778,7.775a1.129,1.129,0,0,1-1.4.362,1.121,1.121,0,0,1-.613-1.054,20.652,20.652,0,0,1,1.989-9.333,25.509,25.509,0,0,1,4.367-6.629c.107-.118.206-.243.3-.356-.019-.055-.02-.1-.042-.119-.915-.994-.908-1.323.051-2.282l2.63-2.631c1.031-1.031,1.337-1.042,2.415-.084.866-.688,1.712-1.406,2.605-2.06a23.366,23.366,0,0,1,10.774-4.45c.956-.13,1.934-.113,2.9-.154a1.1,1.1,0,0,1,1.173.683,1.148,1.148,0,0,1-.351,1.313q-3.459,3.44-6.9,6.9c-1.332,1.332-2.666,2.662-4.038,4.032.762.66,1.489,1.293,2.219,1.923l11.231,9.672c.136.117.274.232.406.354a1.087,1.087,0,0,1,.228,1.611,1.124,1.124,0,0,1-1.671.012c-.892-.755-1.77-1.524-2.655-2.286q-5.531-4.768-11.064-9.535A2.093,2.093,0,0,0-2103.494,267.156Zm-14.067,10.644,8.875-8.871-3-2.984A22.394,22.394,0,0,0-2117.561,277.8Zm22.9-22.865a22.539,22.539,0,0,0-11.9,5.889l3.01,3Zm-10.5,10.621-4.181-4.181-1.786,1.755,4.186,4.2Z" transform="translate(-104.858)" fill="#8daf39"/>
    <path id="Tracé_38" data-name="Tracé 38" d="M-2198.666,334.435c0,1.383,0,2.766,0,4.149a1.1,1.1,0,0,1-.721,1.145,1.126,1.126,0,0,1-1.347-.522q-2.427-3.23-4.847-6.465c-.684-.916-.435-1.657.667-2q2.412-.749,4.83-1.479c1.043-.315,1.628.143,1.621,1.239-.008,1.311,0,2.622,0,3.933Zm-4.411-1.977,2.233,2.969.135-.065v-3.628Z" transform="translate(-28.091 -68.286)" fill="#8daf39"/>
    <path id="Tracé_39" data-name="Tracé 39" d="M-2042.983,475.547c-1.2,0-2.406-.009-3.609,0a1.106,1.106,0,0,1-1.189-.725,1.071,1.071,0,0,1,.481-1.3q2.888-2.2,5.788-4.393a1.1,1.1,0,0,1,1.856.588q.744,2.1,1.464,4.21c.333.98-.133,1.612-1.183,1.618C-2040.577,475.552-2041.78,475.547-2042.983,475.547Zm1.707-3.87-2.2,1.674h2.773Z" transform="translate(-169.117 -192.851)" fill="#8daf39"/>
    <path id="Tracé_40" data-name="Tracé 40" d="M-2014.869,558.174a1.334,1.334,0,0,1-.29-.055c-1.844-.683-3.692-1.359-5.527-2.066a1.049,1.049,0,0,1-.606-1.418,1.056,1.056,0,0,1,1.332-.605q2.8,1.013,5.578,2.077a1.051,1.051,0,0,1,.677,1.207A1.1,1.1,0,0,1-2014.869,558.174Z" transform="translate(-192.73 -268.803)" fill="#8daf39"/>
    <path id="Tracé_41" data-name="Tracé 41" d="M-2113.27,307.375a1.023,1.023,0,0,1,1.026,1.18q-.463,2.395-1.023,4.77a1.035,1.035,0,0,1-1.323.708,1.089,1.089,0,0,1-.755-1.258q.46-2.232.949-4.457A1.068,1.068,0,0,1-2113.27,307.375Z" transform="translate(-108.897 -48.849)" fill="#8daf39"/>
    <path id="Tracé_42" data-name="Tracé 42" d="M-2210.812,650.1a1.054,1.054,0,0,1-1.084-1.078,1.1,1.1,0,0,1,1.1-1.082,1.129,1.129,0,0,1,1.07,1.068A1.085,1.085,0,0,1-2210.812,650.1Z" transform="translate(-22.796 -352.619)" fill="#8daf39"/>
    <path id="Tracé_43" data-name="Tracé 43" d="M-1806.02,513.287a1.091,1.091,0,0,1-1.1-1.077,1.116,1.116,0,0,1,1.109-1.078,1.066,1.066,0,0,1,1.053,1.061A1.048,1.048,0,0,1-1806.02,513.287Z" transform="translate(-383.845 -230.595)" fill="#8daf39"/>
  </g>
</svg>
