<svg xmlns="http://www.w3.org/2000/svg" width="67.184" height="39.254" viewBox="0 0 67.184 39.254">
  <g id="Groupe_15" data-name="Groupe 15" transform="translate(1210.991 293.416)">
    <path id="Tracé_57" data-name="Tracé 57" d="M-1210.991-289.488a2.714,2.714,0,0,1,2.931-1.7c1.616.064,3.236.023,4.854.022a3.256,3.256,0,0,1,3.179,1.9.711.711,0,0,0,.53.318c2.23.018,4.461.036,6.691-.017a3.953,3.953,0,0,0,1.547-.454c2.026-.975,4.01-2.038,6.049-2.984a10.279,10.279,0,0,1,8.929.007,1.19,1.19,0,0,0,1.1.017,10.4,10.4,0,0,1,9.229.1c1.867.9,3.714,1.838,5.558,2.785a4.755,4.755,0,0,0,2.385.572c1.025-.034,2.052-.008,3.106-.008a3.448,3.448,0,0,1,3.751-2.242c1.594.051,3.192,0,4.788,0a2.288,2.288,0,0,1,2.561,2.539q0,8.692,0,17.384a2.232,2.232,0,0,1-2.511,2.494c-4.548,0-9.1.018-13.645-.01a4.437,4.437,0,0,0-3.427.944,3.957,3.957,0,0,1-.648,3.538,3.916,3.916,0,0,1-3.354,1.612,4.148,4.148,0,0,1-3.483,3.946,4.015,4.015,0,0,1-2.282,4.144,4.008,4.008,0,0,1-4.69-.885,4.135,4.135,0,0,1-6.946-1.822,4.181,4.181,0,0,1-4.967-2.974c-.183.012-.375.022-.567.037a3.908,3.908,0,0,1-4.221-2.615c-.147-.38-.309-.432-.672-.375a3.907,3.907,0,0,1-4.466-3.268,1.447,1.447,0,0,0-.978-1.251,9.553,9.553,0,0,0-5.118-1.023c-.737.065-1.491-.054-2.228.015a2.709,2.709,0,0,1-2.981-1.592Zm32.444-1.241a1.57,1.57,0,0,0-.232-.128,3.575,3.575,0,0,0-.38-.091,8.485,8.485,0,0,0-5.477.767c-1.815.912-3.639,1.8-5.443,2.735a7.26,7.26,0,0,1-3.467.816c-1.9-.017-3.805.014-5.708-.016-.537-.008-.687.157-.739.692-.286,2.912-.619,5.82-.944,8.728-.232,2.083-.483,4.165-.7,6.25a.608.608,0,0,0,.242.5c.744.345,1.511.64,2.295.962a4.065,4.065,0,0,1,4.024-2.6,3.973,3.973,0,0,1,3.714,3.068,4.14,4.14,0,0,1,5.013,2.967,4.423,4.423,0,0,1,3.082.468,4.343,4.343,0,0,1,1.87,2.508c.19-.016.342-.021.492-.043a4.045,4.045,0,0,1,4.513,4.82c-.075.349-.188.806-.033,1.059a2.1,2.1,0,0,0,1,.7,1.652,1.652,0,0,0,2.255-1.53,2,2,0,0,0-.733-1.54,1.046,1.046,0,0,1-.172-1.379,1.084,1.084,0,0,1,1.307-.489,2.531,2.531,0,0,1,.518.275,1.636,1.636,0,0,0,1.9-.137,1.613,1.613,0,0,0,.55-1.827,3.079,3.079,0,0,0-.648-.955,1.119,1.119,0,0,1-.1-1.542,1.1,1.1,0,0,1,1.58-.166c.252.172.481.38.731.555a1.656,1.656,0,0,0,2.34-.276,1.726,1.726,0,0,0-.241-2.409c-.326-.29-.7-.531-1.008-.837a1.045,1.045,0,0,1-.135-1.43,1.105,1.105,0,0,1,1.452-.344c.175.089.331.213.507.3a1.649,1.649,0,0,0,1.9-.2,1.433,1.433,0,0,0,.47-1.767,3.707,3.707,0,0,0-1.052-1.433c-3.591-2.566-7.219-5.08-10.839-7.606-.868-.605-1.324-.534-2.015.291q-2.42,2.893-4.836,5.789a4.862,4.862,0,0,1-4.709,1.855c-3.545-.553-4.539-3.7-2.766-6,1.691-2.2,3.213-4.524,4.794-6.8a11.432,11.432,0,0,1,4.467-3.85C-1179.465-290.244-1179.028-290.481-1178.547-290.729Zm17.97,19.71h7.379c-.547-5.086-1.094-10.141-1.63-15.2-.037-.349-.209-.427-.519-.421-.743.013-1.488-.018-2.23.009a7.808,7.808,0,0,1-4.029-.939c-1.752-.932-3.531-1.818-5.322-2.673a8.331,8.331,0,0,0-7.575.037c-1.511.736-3,1.509-4.51,2.256a9.162,9.162,0,0,0-3.479,3.017c-1.616,2.31-3.2,4.64-4.86,6.92-.877,1.207-.212,1.917.735,2.278a2.716,2.716,0,0,0,3.166-.931c1.654-1.951,3.284-3.923,4.93-5.881a3.354,3.354,0,0,1,4.926-.648q5.46,3.8,10.905,7.624a4.615,4.615,0,0,1,2,2.961A12.566,12.566,0,0,1-1160.577-271.019Zm-43.35,0c.057-.486.112-.938.163-1.391q.495-4.424.989-8.849c.238-2.125.49-4.249.705-6.377.1-.942-.194-1.222-1.141-1.229-1.027-.007-2.054-.009-3.081-.011-.8,0-1.6,0-2.43,0v17.857Zm57.849.008v-17.84c-2,0-3.96-.012-5.92.009a.733.733,0,0,0-.732.776,5.132,5.132,0,0,0,.056.848q.491,4.457.989,8.913c.27,2.424.54,4.847.813,7.294Zm-41.465,9.554a1.85,1.85,0,0,0,1.141,1.88,1.643,1.643,0,0,0,1.895-.5,7.119,7.119,0,0,0,.856-1.535,1.673,1.673,0,0,0-.612-1.922,1.583,1.583,0,0,0-1.951-.1A3.475,3.475,0,0,0-1187.543-261.457Zm-4.983-3.032a1.821,1.821,0,0,0,1.121,1.928,1.619,1.619,0,0,0,1.9-.47,6.922,6.922,0,0,0,.877-1.594,1.716,1.716,0,0,0-.708-1.95,1.639,1.639,0,0,0-1.959.037A3.574,3.574,0,0,0-1192.527-264.489Zm13.954,5.561a1.869,1.869,0,0,0-1.2-1.9,1.685,1.685,0,0,0-1.969.641,7.8,7.8,0,0,0-.681,1.191,1.748,1.748,0,0,0,.478,2.077,1.7,1.7,0,0,0,2.01.17A3.683,3.683,0,0,0-1178.573-258.928Zm-17.091-6.507a3.054,3.054,0,0,0,.6-.153,3.333,3.333,0,0,0,1.531-2.65,1.829,1.829,0,0,0-1.246-1.54,1.713,1.713,0,0,0-1.91.666,6.874,6.874,0,0,0-.684,1.187A1.785,1.785,0,0,0-1195.664-265.436Z" fill="#8daf39"/>
  </g>
</svg>
