<svg xmlns="http://www.w3.org/2000/svg" width="13.116" height="18.657" viewBox="0 0 13.116 18.657">
  <g id="Groupe_55" data-name="Groupe 55" transform="translate(343.006 -306.798)">
    <path id="Tracé_81" data-name="Tracé 81" d="M-336.52,325.455a1.275,1.275,0,0,1-.454-.5q-2.49-4.021-4.986-8.037a6.529,6.529,0,0,1-1-4.288,6.421,6.421,0,0,1,1.983-4.006,6.34,6.34,0,0,1,3.187-1.686,6.415,6.415,0,0,1,4.6.728,6.445,6.445,0,0,1,2.759,3.074,6.454,6.454,0,0,1,.518,3.213,6.828,6.828,0,0,1-1,2.949q-2.436,4.053-4.867,8.109a2.91,2.91,0,0,1-.407.441Zm.157-1.614c.029-.045.05-.075.068-.105l4.523-7.552a5.365,5.365,0,0,0,.785-2.618,5.3,5.3,0,0,0-.849-3.126,5.344,5.344,0,0,0-3.988-2.507,5.2,5.2,0,0,0-3.558.824,5.349,5.349,0,0,0-2.492,3.978,5.356,5.356,0,0,0,.829,3.576q2.291,3.685,4.576,7.373C-336.437,323.733-336.4,323.781-336.363,323.841Z" fill="#fff"/>
    <path id="Tracé_82" data-name="Tracé 82" d="M-264.552,381.983a3.269,3.269,0,0,1-3.27,3.276,3.27,3.27,0,0,1-3.287-3.278,3.278,3.278,0,0,1,3.289-3.279A3.278,3.278,0,0,1-264.552,381.983Zm-3.278-2.191a2.2,2.2,0,0,0-2.189,2.188,2.19,2.19,0,0,0,2.186,2.189,2.191,2.191,0,0,0,2.19-2.185A2.2,2.2,0,0,0-267.83,379.792Z" transform="translate(-68.616 -68.622)" fill="#fff"/>
  </g>
</svg>
