<svg xmlns="http://www.w3.org/2000/svg" width="16.11" height="16.176" viewBox="0 0 16.11 16.176">
  <g id="Groupe_20" data-name="Groupe 20" transform="translate(1193.607 29.427)">
    <path id="Tracé_61" data-name="Tracé 61" d="M-1181.581-13.251c-.227-.038-.454-.07-.679-.113a9.784,9.784,0,0,1-2.467-.88,16.517,16.517,0,0,1-4.294-3.011,16.348,16.348,0,0,1-4.215-6.367,6.12,6.12,0,0,1-.369-2.146,2.572,2.572,0,0,1,.715-1.8c.457-.472.907-.956,1.4-1.384a1.543,1.543,0,0,1,2.284.062c.744.713,1.467,1.449,2.173,2.2a1.477,1.477,0,0,1,.007,2.034c-.4.436-.819.846-1.239,1.258a.2.2,0,0,0-.047.279,8.628,8.628,0,0,0,1.323,1.913,12.1,12.1,0,0,0,2.536,2.235c.238.153.5.275.739.42.088.052.123-.005.17-.052q.53-.53,1.06-1.06a1.851,1.851,0,0,1,.95-.558,1.447,1.447,0,0,1,1.337.4c.76.735,1.511,1.48,2.242,2.243a1.516,1.516,0,0,1,.049,2.116c-.5.566-1.039,1.1-1.587,1.622a2.22,2.22,0,0,1-1.309.565.449.449,0,0,0-.088.029Zm.2-.819a1.876,1.876,0,0,0,1.444-.46q.7-.675,1.354-1.388a.745.745,0,0,0-.01-1.136q-1.055-1.086-2.142-2.142a.7.7,0,0,0-.986-.031,2.248,2.248,0,0,0-.2.179c-.391.39-.781.781-1.173,1.17a.671.671,0,0,1-.861.141c-.229-.117-.459-.234-.679-.367a12.392,12.392,0,0,1-2.822-2.381,9.364,9.364,0,0,1-1.67-2.432.717.717,0,0,1,.185-.973c.382-.369.764-.739,1.137-1.116a.789.789,0,0,0,.006-1.305q-.97-.982-1.954-1.951a1.262,1.262,0,0,0-.369-.261.791.791,0,0,0-.918.266q-.586.575-1.16,1.16a1.9,1.9,0,0,0-.459.689,2.919,2.919,0,0,0-.042,1.586,10.251,10.251,0,0,0,1.156,2.981,17.032,17.032,0,0,0,3.573,4.438,15.569,15.569,0,0,0,4.548,2.841A6.29,6.29,0,0,0-1181.382-14.07Z" fill="#fff"/>
  </g>
</svg>
