<svg xmlns="http://www.w3.org/2000/svg" width="30.502" height="24.917" viewBox="0 0 30.502 24.917">
  <g id="Groupe_27" data-name="Groupe 27" transform="translate(2845.404 -912.976)">
    <g id="Groupe_24" data-name="Groupe 24" transform="translate(-2845.404 912.975)">
      <path id="Tracé_67" data-name="Tracé 67" d="M-2843.9,927.347a1.315,1.315,0,0,1,1.434-.775c.618.038,1.24.008,1.861.008a1.114,1.114,0,0,1,1.274,1.169,1.257,1.257,0,0,0,.916-.3.964.964,0,0,0,.218-.239,7.125,7.125,0,0,1,2.644-2.554,3.036,3.036,0,0,0,1.351-2c.157-.659.318-1.317.471-1.977.113-.488.331-.618.808-.47a2.788,2.788,0,0,1,1.909,2.555,7.162,7.162,0,0,1-.538,3.258c-.032.079-.06.161-.1.256h3.006v-.325c0-1.605.005-3.211,0-4.816a1.934,1.934,0,0,1,.672-1.539c1.58-1.41,3.139-2.843,4.73-4.24a2.956,2.956,0,0,1,4.19-.025c.091.076.181.152.269.231q2.252,2.025,4.5,4.049a1.859,1.859,0,0,1,.645,1.46q-.006,7.86,0,15.719a1.786,1.786,0,0,1-1.887,1.89q-3.531.008-7.062,0c-1.32,0-2.643.053-3.958-.02-.771-.043-1.531.011-2.3.017-1.546.012-3.094-.036-4.638.014a12.885,12.885,0,0,1-5.529-.981c-.1-.041-.2-.069-.344-.117,0,.162,0,.285,0,.409a1.06,1.06,0,0,1-1.068,1.133c-.807.024-1.615.015-2.423,0a1.152,1.152,0,0,1-1.059-.8Zm18.345,1.961a1.945,1.945,0,0,1,.208,3.4,1.9,1.9,0,0,1,.267,1.945,1.951,1.951,0,0,1-1.591,1.181,1.967,1.967,0,0,1,.018,1.873c.088.009.136.017.183.017q5.482,0,10.964-.01a.843.843,0,0,0,.926-.969q0-7.8,0-15.6a1.1,1.1,0,0,0-.4-.876c-1.471-1.31-2.932-2.632-4.4-3.949-.1-.086-.193-.169-.292-.25a2.019,2.019,0,0,0-2.947.016c-1.566,1.381-3.106,2.792-4.668,4.178a1.144,1.144,0,0,0-.4.933c.008,1.6.005,3.192.006,4.788v.318a2.137,2.137,0,0,1,2.1.8A1.9,1.9,0,0,1-2825.559,929.308Zm-13.751-.6c-.025.041-.035.049-.035.057q-.005,3.826,0,7.653a.315.315,0,0,0,.174.214c.232.1.478.178.717.268a9.891,9.891,0,0,0,3.427.8c2.216.015,4.432.014,6.648.019a1.285,1.285,0,0,0,.177-.017.924.924,0,0,0,.813-.932.917.917,0,0,0-.812-.932,2.788,2.788,0,0,0-.354-.018c-.739,0-1.478,0-2.216,0-.4,0-.623-.259-.536-.594.075-.288.3-.365.567-.365q1.935,0,3.871,0a.938.938,0,0,0,.939-.665.954.954,0,0,0-.963-1.232c-1.29-.008-2.581,0-3.871,0-.357,0-.554-.168-.557-.465s.192-.476.545-.477c.729,0,1.458,0,2.187,0s1.478.008,2.216,0a.954.954,0,0,0,.976-.97.944.944,0,0,0-.981-.926c-.325,0-.65,0-.975,0-1.133,0-2.266,0-3.4,0-.4,0-.624-.239-.561-.58.046-.252.229-.378.582-.379,1.034,0,2.069,0,3.1,0a4.728,4.728,0,0,0,.678-.027.926.926,0,0,0,.742-1.142.961.961,0,0,0-1.07-.73q-2.556,0-5.112,0a.547.547,0,0,1-.572-.277c-.115-.235.008-.406.125-.6a5.5,5.5,0,0,0,.807-3.866,1.592,1.592,0,0,0-.852-1.238c-.133.544-.265,1.057-.385,1.574a4.13,4.13,0,0,1-1.8,2.636c-.14.092-.27.2-.416.281a4.724,4.724,0,0,0-1.745,1.721A2.3,2.3,0,0,1-2839.31,928.71Zm-3.65,4.164c0,1.645.006,3.29-.005,4.936,0,.272.055.386.355.376.669-.021,1.34-.015,2.009,0,.233,0,.3-.074.3-.306q-.009-5.024,0-10.049c0-.234-.081-.31-.31-.306-.67.011-1.34.016-2.01,0-.28-.008-.35.091-.348.359C-2842.954,929.544-2842.959,931.209-2842.959,932.874Z" transform="translate(2844.022 -914.358)" fill="#8daf39"/>
      <path id="Tracé_68" data-name="Tracé 68" d="M-2842.911,937.893c-.461,0-.908-.006-1.317-.013a1.254,1.254,0,0,1-1.166-.872l-.01-.023V925.938l.011-.024a1.434,1.434,0,0,1,1.549-.843c.423.026.858.02,1.279.013l.575-.005a1.211,1.211,0,0,1,1.379,1.171,1.11,1.11,0,0,0,.733-.271.871.871,0,0,0,.192-.207,7.2,7.2,0,0,1,2.685-2.6,2.9,2.9,0,0,0,1.3-1.926q.074-.309.148-.618c.107-.445.218-.9.323-1.358a.789.789,0,0,1,.327-.551.777.777,0,0,1,.632-.006,2.9,2.9,0,0,1,1.992,2.659,7.229,7.229,0,0,1-.547,3.311c-.012.03-.024.061-.036.093h2.719v-.206q0-.685,0-1.37c0-1.129,0-2.3,0-3.446a2.052,2.052,0,0,1,.711-1.628c.618-.552,1.244-1.116,1.849-1.663.941-.849,1.913-1.727,2.882-2.578a3.073,3.073,0,0,1,4.345-.027c.094.078.185.155.272.234l1.471,1.323q1.516,1.364,3.033,2.726a1.972,1.972,0,0,1,.685,1.548q0,5.6,0,11.21v4.51a1.9,1.9,0,0,1-2.005,2.009c-1.728,0-3.484,0-5.183,0h-1.879c-.386,0-.78,0-1.161.009-.919.011-1.87.022-2.8-.029-.511-.028-1.028-.014-1.528,0-.249.007-.506.014-.76.016-.588,0-1.186,0-1.765,0-.942-.007-1.916-.013-2.871.017a12.93,12.93,0,0,1-5.579-.99c-.054-.023-.11-.041-.179-.063,0,.089,0,.168,0,.247a1.182,1.182,0,0,1-1.183,1.251C-2842.172,937.889-2842.546,937.893-2842.911,937.893Zm-2.256-.959a1.017,1.017,0,0,0,.943.709c.731.012,1.58.023,2.417,0a.946.946,0,0,0,.953-1.016c0-.082,0-.164,0-.258v-.315l.156.053.132.043c.081.026.151.048.22.077a12.7,12.7,0,0,0,5.479.972c.96-.031,1.936-.024,2.88-.018.577,0,1.175.008,1.761,0,.252,0,.508-.009.755-.016.5-.014,1.027-.029,1.547,0,.926.051,1.872.04,2.788.029.382,0,.776-.009,1.164-.009h1.879c1.7,0,3.455,0,5.182,0a1.661,1.661,0,0,0,1.769-1.772V930.9q0-5.6,0-11.21a1.746,1.746,0,0,0-.606-1.371q-1.518-1.361-3.033-2.726l-1.471-1.323c-.085-.076-.171-.148-.266-.228a2.826,2.826,0,0,0-4.036.023c-.968.849-1.94,1.727-2.88,2.575-.6.546-1.231,1.111-1.85,1.664a1.827,1.827,0,0,0-.632,1.45c.007,1.149.006,2.318,0,3.447q0,.685,0,1.369v.443h-3.295l.092-.249c.022-.06.042-.116.064-.17a7,7,0,0,0,.53-3.2,2.669,2.669,0,0,0-1.826-2.45.575.575,0,0,0-.444-.015.587.587,0,0,0-.214.4c-.105.454-.216.914-.323,1.36q-.074.309-.148.618a3.126,3.126,0,0,1-1.4,2.074,6.971,6.971,0,0,0-2.6,2.511,1.053,1.053,0,0,1-.244.27,1.379,1.379,0,0,1-1,.328l-.1,0-.01-.1c-.08-.765-.4-1.063-1.156-1.063-.194,0-.381,0-.572.005-.425.006-.864.013-1.3-.014a1.191,1.191,0,0,0-1.309.683Zm1.141-.012a.459.459,0,0,1-.326-.1.521.521,0,0,1-.113-.392c.008-1.233.007-2.486.006-3.7q0-.618,0-1.236t0-1.246c0-1.228,0-2.5-.006-3.747a.5.5,0,0,1,.111-.375.481.481,0,0,1,.359-.1c.7.019,1.406.012,2,0a.445.445,0,0,1,.327.1.449.449,0,0,1,.1.326c-.006,3.411-.006,6.792,0,10.048a.445.445,0,0,1-.1.328.439.439,0,0,1-.323.1c-.639-.012-1.324-.019-2,0Zm0-10.666a.247.247,0,0,0-.161.036c-.028.027-.041.094-.04.2.008,1.25.007,2.52.006,3.749q0,.623,0,1.246t0,1.236c0,1.213,0,2.467-.006,3.7,0,.123.012.193.041.221a.292.292,0,0,0,.191.036c.685-.022,1.373-.014,2.015,0,.1,0,.138-.014.152-.028s.031-.053.031-.159c-.006-3.256-.006-6.637,0-10.049a.244.244,0,0,0-.033-.157.239.239,0,0,0-.157-.03c-.6.01-1.309.017-2.015,0Zm16.171,10.2a.99.99,0,0,1-.116-.009l-.079-.009-.168-.016.072-.152a1.853,1.853,0,0,0-.015-1.767l-.077-.144.161-.028a1.831,1.831,0,0,0,1.5-1.11,1.774,1.774,0,0,0-.255-1.83l-.069-.1.1-.068a1.864,1.864,0,0,0,.85-1.652A1.873,1.873,0,0,0-2827,928.03l-.109-.058.063-.107a1.776,1.776,0,0,0-.018-2.08,2,2,0,0,0-2-.752l-.127.009V924.6q0-.637,0-1.274c0-1.151,0-2.342-.006-3.513a1.268,1.268,0,0,1,.443-1.022c.72-.639,1.448-1.294,2.152-1.928.822-.74,1.672-1.506,2.516-2.25a2.134,2.134,0,0,1,3.1-.019c.111.092.208.175.3.253l1.231,1.109c1.036.933,2.107,1.9,3.165,2.84a1.214,1.214,0,0,1,.438.965q0,5.138,0,10.276,0,2.664,0,5.328a.954.954,0,0,1-1.044,1.087c-2.959.006-5.967.007-8.876.009Zm-.01-.237h2.1c2.909,0,5.917,0,8.876-.009.543,0,.807-.279.807-.851q0-2.664,0-5.328,0-5.138,0-10.276a.981.981,0,0,0-.359-.788c-1.059-.943-2.13-1.908-3.166-2.841l-1.231-1.108c-.085-.076-.179-.157-.288-.247a1.9,1.9,0,0,0-2.793.014c-.843.743-1.693,1.509-2.515,2.248-.7.634-1.432,1.29-2.153,1.929a1.021,1.021,0,0,0-.363.844c.006,1.171.006,2.362.006,3.514q0,.637,0,1.274v.192a2.225,2.225,0,0,1,2.082.861,1.992,1.992,0,0,1,.087,2.231,2.117,2.117,0,0,1,1.065,1.682,2.108,2.108,0,0,1-.857,1.791,1.993,1.993,0,0,1,.214,1.963,2.037,2.037,0,0,1-1.526,1.221A2.039,2.039,0,0,1-2827.865,936.224Zm-1.9.236h0l-1.747,0c-1.607,0-3.268-.005-4.9-.016a10.01,10.01,0,0,1-3.468-.81c-.083-.031-.167-.061-.25-.09-.156-.055-.318-.111-.473-.181a.428.428,0,0,1-.243-.322c-.006-2.36,0-4.76,0-7.081v-.573a.149.149,0,0,1,.032-.088l.021-.031.035-.056h.072a2.2,2.2,0,0,0,1.973-1.163,4.808,4.808,0,0,1,1.788-1.763,2.735,2.735,0,0,0,.246-.164c.054-.039.107-.077.163-.113a3.985,3.985,0,0,0,1.749-2.564c.082-.354.168-.7.26-1.069q.062-.249.125-.506l.036-.146.134.069a1.7,1.7,0,0,1,.915,1.324,5.625,5.625,0,0,1-.823,3.947l-.021.034c-.117.187-.174.292-.1.447.087.177.23.21.464.21h0c1.676,0,3.408,0,5.113,0a1.081,1.081,0,0,1,1.185.818,1.047,1.047,0,0,1-.143.839,1.019,1.019,0,0,1-.7.45,4.018,4.018,0,0,1-.591.028h-1.537q-.835,0-1.669,0c-.365,0-.441.143-.466.282a.353.353,0,0,0,.062.3.488.488,0,0,0,.383.142q1.218,0,2.436,0h1.252c.229,0,.458,0,.687,0a1.069,1.069,0,0,1,1.1,1.043,1.056,1.056,0,0,1-.307.769,1.121,1.121,0,0,1-.786.322c-.518.007-1.044.006-1.553,0-.222,0-.443,0-.665,0h-.665q-.761,0-1.522,0a.474.474,0,0,0-.342.11.333.333,0,0,0-.085.248c0,.231.15.348.438.348h1.378c.817,0,1.663,0,2.494,0a1.135,1.135,0,0,1,.92.444,1.058,1.058,0,0,1,.155.94,1.063,1.063,0,0,1-1.052.75c-1.273,0-2.558,0-3.872,0h0c-.27,0-.4.08-.451.277a.332.332,0,0,0,.044.295.467.467,0,0,0,.378.151c.476.005.96,0,1.428,0h.787a2.867,2.867,0,0,1,.369.019,1.033,1.033,0,0,1,.915,1.049,1.039,1.039,0,0,1-.916,1.05h-.01A1.311,1.311,0,0,1-2829.761,936.46Zm-10.847-9.015v.512c0,2.321-.007,4.72,0,7.08a.25.25,0,0,0,.1.106c.146.066.3.12.454.174.085.03.171.06.256.092a9.807,9.807,0,0,0,3.385.795c1.634.011,3.295.014,4.9.016l1.747,0h0a1.106,1.106,0,0,0,.148-.014h.01a.807.807,0,0,0,.711-.815.8.8,0,0,0-.709-.814,2.665,2.665,0,0,0-.338-.017h-.786c-.469,0-.954,0-1.431,0a.7.7,0,0,1-.563-.244.567.567,0,0,1-.085-.5.624.624,0,0,1,.682-.454c1.314,0,2.6,0,3.871,0a.821.821,0,0,0,.825-.581.824.824,0,0,0-.119-.732.9.9,0,0,0-.731-.348c-.831-.005-1.676,0-2.492,0h-1.378c-.419,0-.671-.218-.675-.582a.569.569,0,0,1,.153-.417.7.7,0,0,1,.51-.18q.761,0,1.523,0h1.329c.508,0,1.033,0,1.55,0a.886.886,0,0,0,.622-.252.821.821,0,0,0,.237-.6.826.826,0,0,0-.864-.81c-.228,0-.455,0-.683,0h-1.252q-1.218,0-2.437,0a.717.717,0,0,1-.565-.227.582.582,0,0,1-.113-.492c.058-.315.292-.475.7-.477q.835,0,1.67,0h1.538a3.849,3.849,0,0,0,.556-.026.781.781,0,0,0,.533-.346.809.809,0,0,0,.112-.649.848.848,0,0,0-.956-.641c-1.7,0-3.437,0-5.112,0a.657.657,0,0,1-.678-.343.638.638,0,0,1,.11-.677l.021-.034a5.392,5.392,0,0,0,.791-3.785,1.5,1.5,0,0,0-.657-1.075l-.088.354c-.091.366-.177.712-.259,1.065a4.266,4.266,0,0,1-1.85,2.709c-.052.034-.1.071-.155.108a2.918,2.918,0,0,1-.268.178,4.576,4.576,0,0,0-1.7,1.679A2.42,2.42,0,0,1-2840.608,927.445Z" transform="translate(2845.404 -912.975)" fill="#8daf39"/>
    </g>
    <g id="Groupe_25" data-name="Groupe 25" transform="translate(-2825.479 922.976)">
      <path id="Tracé_69" data-name="Tracé 69" d="M-2589.233,1042.148c0-.164-.006-.351,0-.537a.486.486,0,0,1,.479-.5.475.475,0,0,1,.466.5c.007.186,0,.371,0,.5.414.183.8.319,1.157.52a2.368,2.368,0,0,1,.95,1.1.491.491,0,0,1-.183.711.467.467,0,0,1-.671-.281,1.932,1.932,0,0,0-2.77-.762,1.178,1.178,0,0,0-.612,1.074,1,1,0,0,0,.691.972,14.494,14.494,0,0,0,1.527.419,3.612,3.612,0,0,1,1.516.687,2.028,2.028,0,0,1-.372,3.437,10.419,10.419,0,0,1-1.236.446c0,.135.007.33,0,.524a.458.458,0,0,1-.457.477.471.471,0,0,1-.488-.482c-.006-.1,0-.2,0-.3v-.25c-.338-.12-.67-.208-.975-.353a2.449,2.449,0,0,1-1.343-1.526c-.112-.354-.012-.622.262-.71.292-.094.519.045.636.4a1.662,1.662,0,0,0,1.343,1.146,2.616,2.616,0,0,0,1.833-.231,1.083,1.083,0,0,0,.157-1.873,3.317,3.317,0,0,0-1.362-.522,8.8,8.8,0,0,1-1.407-.414,1.924,1.924,0,0,1-1.268-1.736,2.093,2.093,0,0,1,1.138-2.047A8.323,8.323,0,0,1-2589.233,1042.148Z" transform="translate(2591.715 -1040.996)" fill="#8daf39"/>
      <path id="Tracé_70" data-name="Tracé 70" d="M-2590.127,1050.185a.59.59,0,0,1-.594-.593c0-.072,0-.144,0-.213,0-.03,0-.059,0-.089v-.166l-.236-.078a5.729,5.729,0,0,1-.672-.251,2.564,2.564,0,0,1-1.406-1.6c-.131-.414,0-.75.339-.858.356-.114.649.064.785.476a1.539,1.539,0,0,0,1.254,1.067,2.508,2.508,0,0,0,1.752-.219,1.006,1.006,0,0,0,.558-.789,1.022,1.022,0,0,0-.419-.887,2.876,2.876,0,0,0-1.186-.469l-.234-.056a8.242,8.242,0,0,1-1.323-.4,2.042,2.042,0,0,1-1.339-1.838,2.222,2.222,0,0,1,1.2-2.156,4.4,4.4,0,0,1,.668-.29c.084-.031.171-.063.259-.1v-.073c0-.126,0-.256,0-.389a.607.607,0,0,1,.6-.61.594.594,0,0,1,.583.618c0,.135,0,.267,0,.384,0,.016,0,.031,0,.047.1.045.208.088.309.13a6.954,6.954,0,0,1,.788.365,2.457,2.457,0,0,1,1,1.154.6.6,0,0,1-.236.867.571.571,0,0,1-.46.04.662.662,0,0,1-.373-.378,1.6,1.6,0,0,0-1.01-.9,1.992,1.992,0,0,0-1.59.188,1.065,1.065,0,0,0-.555.971.881.881,0,0,0,.614.862,11.625,11.625,0,0,0,1.262.354l.253.061a3.735,3.735,0,0,1,1.564.712,2.2,2.2,0,0,1,.815,1.946,2.162,2.162,0,0,1-1.209,1.687,5.4,5.4,0,0,1-.83.314c-.111.035-.225.071-.34.111,0,.014,0,.028,0,.043,0,.116,0,.26,0,.4a.576.576,0,0,1-.573.59Zm-2.363-3.646a.434.434,0,0,0-.134.025c-.3.1-.229.424-.186.561a2.336,2.336,0,0,0,1.281,1.455,5.552,5.552,0,0,0,.644.24c.106.035.213.07.32.108l.079.028v.333c0,.031,0,.062,0,.092,0,.068,0,.132,0,.2a.354.354,0,0,0,.367.37.342.342,0,0,0,.341-.363c.006-.136,0-.27,0-.389,0-.047,0-.091,0-.13v-.084l.079-.028c.146-.052.289-.1.427-.141a5.21,5.21,0,0,0,.794-.3,1.927,1.927,0,0,0,1.081-1.5,1.965,1.965,0,0,0-.732-1.738,3.521,3.521,0,0,0-1.468-.663l-.252-.061a11.8,11.8,0,0,1-1.288-.362,1.118,1.118,0,0,1-.769-1.082,1.3,1.3,0,0,1,.669-1.177,2.207,2.207,0,0,1,1.784-.212,1.849,1.849,0,0,1,1.156,1.027.435.435,0,0,0,.236.251.341.341,0,0,0,.273-.028.384.384,0,0,0,.129-.555,2.23,2.23,0,0,0-.9-1.049,6.759,6.759,0,0,0-.761-.352c-.125-.052-.254-.105-.385-.163l-.071-.031v-.077c0-.038,0-.081,0-.127,0-.114,0-.243,0-.373a.358.358,0,0,0-.349-.39.369.369,0,0,0-.36.382c-.005.127,0,.254,0,.377,0,.053,0,.105,0,.155v.08l-.074.03c-.116.047-.23.09-.34.13a4.22,4.22,0,0,0-.633.273,1.974,1.974,0,0,0-1.079,1.937,1.8,1.8,0,0,0,1.2,1.634,8.07,8.07,0,0,0,1.285.383l.233.055a3.092,3.092,0,0,1,1.279.514,1.254,1.254,0,0,1,.508,1.093,1.24,1.24,0,0,1-.682.977,2.739,2.739,0,0,1-1.914.242,1.78,1.78,0,0,1-1.431-1.225C-2592.231,1046.6-2592.377,1046.539-2592.49,1046.539Z" transform="translate(2593.085 -1039.614)" fill="#8daf39"/>
    </g>
    <g id="Groupe_26" data-name="Groupe 26" transform="translate(-2824.332 915.969)">
      <path id="Tracé_71" data-name="Tracé 71" d="M-2575.33,952.38a1.687,1.687,0,0,1,1.654,1.691,1.713,1.713,0,0,1-1.736,1.679,1.7,1.7,0,0,1-1.649-1.7A1.683,1.683,0,0,1-2575.33,952.38Zm-.764,1.691a.727.727,0,0,0,.735.721.728.728,0,0,0,.709-.746.718.718,0,0,0-.734-.717A.722.722,0,0,0-2576.094,954.071Z" transform="translate(2577.179 -952.261)" fill="#8daf39"/>
      <path id="Tracé_72" data-name="Tracé 72" d="M-2576.759,954.487h-.037a1.832,1.832,0,0,1-1.765-1.821,1.783,1.783,0,0,1,.539-1.27,1.828,1.828,0,0,1,1.313-.516,1.8,1.8,0,0,1,1.77,1.811,1.8,1.8,0,0,1-.556,1.279A1.807,1.807,0,0,1-2576.759,954.487Zm.02-3.37a1.587,1.587,0,0,0-1.118.449,1.548,1.548,0,0,0-.467,1.1,1.591,1.591,0,0,0,1.533,1.582,1.561,1.561,0,0,0,1.131-.45,1.564,1.564,0,0,0,.484-1.111,1.561,1.561,0,0,0-1.537-1.571h-.026Zm-.017,2.413a.826.826,0,0,1-.577-.235.848.848,0,0,1-.261-.6h0a.838.838,0,0,1,.827-.862.835.835,0,0,1,.6.235.844.844,0,0,1,.255.6.842.842,0,0,1-.825.866Zm-.6-.841a.613.613,0,0,0,.188.435.582.582,0,0,0,.426.168.607.607,0,0,0,.594-.626.608.608,0,0,0-.183-.432.587.587,0,0,0-.431-.168.6.6,0,0,0-.594.622Z" transform="translate(2578.561 -950.88)" fill="#8daf39"/>
    </g>
  </g>
</svg>
