<svg id="Groupe_22" data-name="Groupe 22" xmlns="http://www.w3.org/2000/svg" width="30.502" height="35.543" viewBox="0 0 30.502 35.543">
  <path id="Tracé_63" data-name="Tracé 63" d="M-1738.7,1134.549l2.618,4.3c.67,1.1,1.31,2.222,2.018,3.3a1.342,1.342,0,0,1-1.108,2.092c-1.113,0-2.226.035-3.339.034a.517.517,0,0,0-.547.32c-.476.938-.981,1.861-1.477,2.789a1.418,1.418,0,0,1-1.424.806,1.218,1.218,0,0,1-.967-.691c-1.6-2.65-3.221-5.294-4.822-7.947a.536.536,0,0,0-.558-.309,13.806,13.806,0,0,1-1.526-.011.5.5,0,0,0-.531.29c-1.578,2.612-3.17,5.215-4.748,7.827a1.359,1.359,0,0,1-1.241.848,1.5,1.5,0,0,1-1.32-.926c-.471-.914-.969-1.814-1.44-2.728a.419.419,0,0,0-.437-.26c-1.078,0-2.155-.011-3.233-.02a1.483,1.483,0,0,1-1.4-.8,1.23,1.23,0,0,1,.115-1.3c1.524-2.492,3.035-4.992,4.564-7.48a.59.59,0,0,0-.03-.794,12.73,12.73,0,0,1-2.525-9.422,12.878,12.878,0,0,1,7.727-10.59,13.106,13.106,0,0,1,14.434,2.3,12.907,12.907,0,0,1,4.172,7.826,13.053,13.053,0,0,1-2.793,10.308C-1738.582,1134.382-1738.636,1134.459-1738.7,1134.549Zm-10.167,3.075a11.683,11.683,0,0,0,11.661-11.648,11.7,11.7,0,0,0-11.65-11.667,11.672,11.672,0,0,0-11.663,11.64A11.65,11.65,0,0,0-1748.87,1137.625Zm-9.246-2.1-4.328,7.121c1.082,0,2.052.024,3.02-.007a1.659,1.659,0,0,1,1.7,1.021c.42.857.89,1.69,1.361,2.578l4.453-7.315A13.446,13.446,0,0,1-1758.116,1135.528Zm11.938,3.472,4.408,7.24c.5-.935.976-1.816,1.435-2.706a1.5,1.5,0,0,1,1.449-.887c.852,0,1.7-.02,2.555-.031.182,0,.363,0,.621,0l-4.17-6.849A13.427,13.427,0,0,1-1746.178,1139Z" transform="translate(1764.327 -1112.657)" fill="#8daf39"/>
  <path id="Tracé_64" data-name="Tracé 64" d="M-1672.092,1166.087a3.578,3.578,0,0,1-.387.64q-1.44,1.547-2.911,3.065a.623.623,0,0,0-.2.566c.185,1.335.36,2.671.537,4.007.016.117.032.235.036.353a.814.814,0,0,1-1.236.814c-1.282-.606-2.563-1.214-3.835-1.839a.694.694,0,0,0-.69.006c-1.273.624-2.554,1.23-3.835,1.837a.825.825,0,0,1-.936-.07.832.832,0,0,1-.29-.859c.052-.278.067-.563.1-.844.154-1.148.319-2.295.458-3.445a.651.651,0,0,0-.153-.461c-.967-1.041-1.948-2.069-2.929-3.1a.878.878,0,0,1-.316-.916.872.872,0,0,1,.785-.612c1.372-.243,2.741-.508,4.114-.75a.7.7,0,0,0,.564-.4c.649-1.234,1.324-2.455,1.982-3.685a.873.873,0,0,1,.793-.556.868.868,0,0,1,.8.549c.665,1.24,1.344,2.472,2,3.717a.669.669,0,0,0,.542.375q2.11.375,4.216.775A.914.914,0,0,1-1672.092,1166.087Zm-14.156.516.469.495c.637.669,1.291,1.322,1.9,2.016a1.345,1.345,0,0,1,.307.786,7.787,7.787,0,0,1-.152,1.229c-.1.754-.2,1.508-.3,2.308.85-.406,1.648-.79,2.449-1.168,1.279-.6.973-.632,2.286,0,.8.381,1.6.761,2.442,1.164-.018-.167-.028-.282-.042-.4-.132-1.02-.26-2.04-.4-3.059a.993.993,0,0,1,.317-.893c.46-.461.9-.94,1.349-1.413.322-.34.641-.683.988-1.052-.14-.036-.229-.065-.321-.082-1.01-.188-2.019-.386-3.032-.557a1.059,1.059,0,0,1-.817-.6c-.476-.9-.965-1.789-1.451-2.682-.051-.094-.111-.183-.186-.307-.552,1.019-1.083,1.982-1.6,2.954a1.07,1.07,0,0,1-.868.639c-.363.043-.72.129-1.08.2Z" transform="translate(1695.885 -1155.359)" fill="#8daf39"/>
</svg>
