<svg xmlns="http://www.w3.org/2000/svg" width="46.846" height="46.862" viewBox="0 0 46.846 46.862">
  <g id="Groupe_14" data-name="Groupe 14" transform="translate(2143.175 518.741)">
    <path id="Tracé_51" data-name="Tracé 51" d="M-2137.045-518.741h34.586a2.226,2.226,0,0,1,1.472,2.395c-.034,4.634-.014,9.269-.014,13.9v.549c1.213,0,2.355,0,3.5,0,.815,0,1.172.363,1.173,1.17q0,3.522,0,7.043c0,.834-.354,1.183-1.2,1.186-1.006,0-2.012,0-3.019,0H-2101c0,2.546.005,5.015,0,7.484a2.377,2.377,0,0,1-.233,1.55.21.21,0,0,0,0,.172,7.169,7.169,0,0,1,.234,2.848,2.781,2.781,0,0,1-2.5,2.891,3.025,3.025,0,0,0-.331.094c0,.984.026,1.96-.006,2.933a2.754,2.754,0,0,1-2.586,2.607q-2.079.057-4.161,0a2.718,2.718,0,0,1-2.568-2.516c-.049-.851-.029-1.706-.042-2.559,0-.16-.016-.32-.025-.485h-13.081c0,.188,0,.352,0,.516-.006.792.025,1.588-.027,2.377a2.756,2.756,0,0,1-2.887,2.681c-1.113.006-2.229-.05-3.338.013a2.9,2.9,0,0,1-3.128-3.122c.045-.817.008-1.638.008-2.465-.161-.035-.278-.067-.4-.085a2.663,2.663,0,0,1-2.333-2.188,8.04,8.04,0,0,1,.1-3.443.88.88,0,0,0-.023-.377,4.92,4.92,0,0,1-.167-.834c-.013-2.531-.008-5.061-.008-7.592v-.5c-1.138,0-2.205-.021-3.271.008a1.441,1.441,0,0,1-1.4-.639v-8.143a1.255,1.255,0,0,1,.992-.626c.183,0,.366,0,.549,0h3.132v-.594c0-4.619.02-9.239-.014-13.858A2.226,2.226,0,0,1-2137.045-518.741Zm33.219,25.357a1.256,1.256,0,0,0,.942-1.3c-.036-7.181-.021-14.362-.021-21.543v-.6H-2136.6v22.149c0,.831.05.9.921,1.264,0-.2,0-.372,0-.548,0-4.254-.014-8.507.014-12.761a4.616,4.616,0,0,1,4.5-4.51q11.389-.032,22.778,0a4.608,4.608,0,0,1,4.546,4.561c.028,4.223.011,8.446.013,12.669Zm-1.91,2.666c.006-.121.02-.27.02-.418q0-7.571,0-15.143a3.847,3.847,0,0,0-.088-.95,2.787,2.787,0,0,0-3.012-2.125q-10.934,0-21.868,0a3.95,3.95,0,0,0-.995.1,2.764,2.764,0,0,0-2.108,2.976q-.005,7.549,0,15.1v.513a2.872,2.872,0,0,0,.451.021,1.611,1.611,0,0,1,1.487.628,6.651,6.651,0,0,0,.907.9,2.29,2.29,0,0,1,.912,2.2c-.059.613-.011,1.236-.011,1.857h20.584c0-.445,0-.854,0-1.263.02-2.274-.187-1.616,1.32-3.213a2.546,2.546,0,0,1,2.337-1.128C-2105.792-490.665-2105.779-490.684-2105.735-490.718Zm-14.068,11.325h15.548c.137,0,.275.008.411,0a.938.938,0,0,0,.935-.98q.021-.891,0-1.783a.891.891,0,0,0-.813-.941,2.937,2.937,0,0,0-.544-.036q-15.479,0-30.959,0a3.876,3.876,0,0,0-.411.006.955.955,0,0,0-.96,1.052c-.008.472,0,.945,0,1.418,0,.978.3,1.27,1.293,1.27Zm-8.406,1.936h-5.573c0,.935-.018,1.832.006,2.728a.871.871,0,0,0,.953.934q1.825.025,3.651,0a.838.838,0,0,0,.949-.836C-2128.173-475.564-2128.209-476.5-2128.209-477.457Zm16.9-.018c0,.964-.031,1.889.012,2.811a.818.818,0,0,0,.835.856c1.307.021,2.615.016,3.923,0a.725.725,0,0,0,.764-.657c.052-.994.017-1.992.017-3.008Zm-27.214-22.477h-2.725v5.527h2.725Zm37.548-.014v5.546h2.726v-5.546Zm-32.791,14.916c.187.009.35.022.513.023.421,0,.843,0,1.318,0a5.941,5.941,0,0,1,.007-.9,2.492,2.492,0,0,0-1.08-2.583.71.71,0,0,0-.758-.174Zm28.016,0v-3.822a4.805,4.805,0,0,0-.777.416,9.362,9.362,0,0,0-.842.831.613.613,0,0,0-.2.334c-.018.739-.009,1.479-.009,2.24Zm-30.823-6.6v6.6h.821c.029-.05.056-.076.056-.1.006-1.9.011-3.8.006-5.7a.434.434,0,0,0-.153-.295C-2136.049-491.319-2136.283-491.458-2136.569-491.65Zm33.644.056a1.192,1.192,0,0,0-.921,1.319c.072,1.426.021,2.859.021,4.289v.928h.9Z" fill="#8daf39"/>
    <path id="Tracé_52" data-name="Tracé 52" d="M-2042.214-422.86c3.66,0,7.319.027,10.979-.015a1.987,1.987,0,0,1,2.15,2.147c-.024,3.248-.015,6.5,0,9.744a1.244,1.244,0,0,1-.854,1.3c-1.266.519-2.512,1.089-3.779,1.606a2.889,2.889,0,0,1-1.058.215q-7.457.021-14.913,0a2.757,2.757,0,0,1-1.015-.2c-1.28-.526-2.541-1.1-3.82-1.626a1.218,1.218,0,0,1-.835-1.264c.011-3.263,0-6.526.008-9.789a1.877,1.877,0,0,1,2.115-2.11Q-2047.726-422.863-2042.214-422.86Zm-11.258,1.907a1.03,1.03,0,0,0-.041.181c.011,3.065.02,6.13.05,9.195a.593.593,0,0,0,.321.4c1,.452,2.005.88,3.014,1.307.829.351,1.344.086,1.571-.823-.266,0-.525.019-.78,0a.916.916,0,0,1-.842-.874.888.888,0,0,1,.745-.947,2.986,2.986,0,0,1,.588-.055q1.9-.007,3.8,0c.488,0,.978-.02,1.461.028a.933.933,0,0,1,.9.967.958.958,0,0,1-1.025.891c-.61.009-1.22,0-1.83,0-.834,0-.93.073-1.188.925,2.309,0,4.61,0,6.91-.007a.4.4,0,0,0,.285-.159c.151-.221.27-.465.435-.759h-.693a.915.915,0,0,1-.956-.632c-.234-.671.238-1.239,1.06-1.253.976-.017,1.952,0,2.928,0,.808,0,1.617-.021,2.424.01a.928.928,0,0,1,1,1c-.025.545-.418.875-1.066.881s-1.281,0-1.921,0-.89.217-1,.9a7.019,7.019,0,0,0,4.549-.748c.46-.2.913-.42,1.384-.592a.566.566,0,0,0,.427-.633c-.015-2.913-.009-5.825-.009-8.738v-.461Z" transform="translate(-77.527 -84.636)" fill="#8daf39"/>
    <path id="Tracé_53" data-name="Tracé 53" d="M-2006.671-254.806q3.657,0,7.314,0c.724,0,1.128.37,1.1.98a.879.879,0,0,1-.7.846,3.115,3.115,0,0,1-.634.059q-7.086,0-14.172,0a3.117,3.117,0,0,1-.455-.025.9.9,0,0,1-.877-.973.907.907,0,0,1,.967-.884c.624-.015,1.25-.005,1.874-.005Z" transform="translate(-113.08 -233.014)" fill="#8daf39"/>
    <path id="Tracé_54" data-name="Tracé 54" d="M-2006.613-278.9q3.566,0,7.132,0a1.88,1.88,0,0,1,.671.1.853.853,0,0,1,.567.9.837.837,0,0,1-.615.817,2.445,2.445,0,0,1-.719.086q-7.086.007-14.172,0a2.579,2.579,0,0,1-.675-.075.837.837,0,0,1-.653-.833.849.849,0,0,1,.614-.909,2,2,0,0,1,.628-.08Q-2010.224-278.9-2006.613-278.9Z" transform="translate(-113.091 -211.747)" fill="#8daf39"/>
    <path id="Tracé_55" data-name="Tracé 55" d="M-2004.385-205.111c-.578,0-1.156.007-1.733,0a.979.979,0,0,1-1.081-.932.972.972,0,0,1,1.053-.961q1.755-.026,3.511,0a.982.982,0,0,1,1.059.956.979.979,0,0,1-1.077.939h-1.733Z" transform="translate(-120.048 -275.207)" fill="#8daf39"/>
    <path id="Tracé_56" data-name="Tracé 56" d="M-1924.419-205.115c-.593,0-1.186.008-1.778,0a.972.972,0,0,1-1.066-.949.974.974,0,0,1,1.028-.941q1.778-.032,3.557,0a.969.969,0,0,1,1.04.974.983.983,0,0,1-1.094.919C-1923.294-205.109-1923.856-205.115-1924.419-205.115Z" transform="translate(-190.62 -275.202)" fill="#8daf39"/>
  </g>
</svg>
