<svg xmlns="http://www.w3.org/2000/svg" width="17.189" height="18.95" viewBox="0 0 17.189 18.95">
  <g id="Groupe_112" data-name="Groupe 112" transform="translate(294.729 -489.588)">
    <path id="Tracé_178" data-name="Tracé 178" d="M-293.972,508.538a1.7,1.7,0,0,1-.753-1.635c.047-1.034,0-2.071.023-3.106a1.627,1.627,0,0,1,.238-.545c.109.186.307.369.312.558.031,1.059.038,2.121.007,3.18-.02.684.22,1.018.939.977a15.729,15.729,0,0,1,1.7,0c.712.037.955-.293.951-.977-.017-3.279-.008-6.559-.008-9.838,0-.912-.017-1.825.006-2.737.016-.626-.261-.915-.876-.911s-1.233,0-1.849,0-.869.282-.864.912c.021,2.441.009,4.882.007,7.323a2.075,2.075,0,0,1-.033.586.488.488,0,0,1-.307.242c-.044.014-.183-.145-.213-.244a1.59,1.59,0,0,1-.022-.44q0-3.736,0-7.471c0-1.06.4-1.465,1.475-1.494.443-.012.888,0,1.331,0,1.522,0,1.761.2,2,1.672h1.254c0-1.291,0-2.564,0-3.838,0-1.086.065-1.151,1.119-1.152,1.332,0,2.663-.013,3.994.013a1.9,1.9,0,0,1,.641.282,2.106,2.106,0,0,1-.673.266c-1.473.024-2.946.012-4.46.012v4.393h7.969v-4.394c-.563,0-1.122.025-1.675-.015-.164-.012-.315-.209-.472-.321a1.5,1.5,0,0,1,.481-.225c.466-.031.937.008,1.4-.016.634-.033.9.256.891.878-.014,1.109,0,2.219,0,3.329,0,.242,0,.484,0,.777.3.02.539.03.776.052a1.11,1.11,0,0,1,1.11,1.148q.024,4.956,0,9.912c0,.781-.543,1.2-1.46,1.2q-5.03.008-10.06,0h-.6l-1.046,1.649Zm4.018-2.228c3.754,0,7.425,0,11.095,0,.62,0,.749-.407.747-.951-.012-3.032,0-6.064-.006-9.1,0-.974-.088-1.062-1.054-1.063q-5.066,0-10.131,0c-.212,0-.424.029-.65.046Z" fill="#fff"/>
    <path id="Tracé_179" data-name="Tracé 179" d="M-130.835,558.775c-.739,0-1.479.019-2.216-.014-.16-.007-.312-.2-.468-.312.154-.083.307-.235.462-.237q2.216-.027,4.433,0c.145,0,.287.174.43.267-.142.1-.28.275-.426.281C-129.356,558.79-130.1,558.774-130.835,558.775Z" transform="translate(-153.195 -65.199)" fill="#fff"/>
    <path id="Tracé_180" data-name="Tracé 180" d="M-128.144,522.5c-.179.1-.357.289-.539.292q-2.178.036-4.357,0c-.164,0-.325-.2-.487-.306.1-.084.2-.239.3-.24,1.664-.015,3.329-.011,4.994-.011Z" transform="translate(-153.186 -31.023)" fill="#fff"/>
    <path id="Tracé_181" data-name="Tracé 181" d="M-164.008,621.661c-1.436,0-2.859.017-4.282-.013a4.056,4.056,0,0,1-.971-.266,3.515,3.515,0,0,1,.945-.3c1.306-.035,2.613-.021,3.92-.012.863.005,1.033.181,1.042,1.042.006.592-.006,1.184,0,1.775a.7.7,0,0,1-.76.8q-3.846.017-7.693,0a.693.693,0,0,1-.766-.791c.011-.69-.005-1.381.01-2.071a.869.869,0,0,1,.144-.478,2.4,2.4,0,0,1,2.6.2c-.42.049-.732.1-1.046.117-.34.018-.681,0-1.075,0v2.383h7.929Z" transform="translate(-116.083 -124.922)" fill="#fff"/>
    <path id="Tracé_182" data-name="Tracé 182" d="M-156.513,710.227a.968.968,0,0,1,.971.992.927.927,0,0,1-.992.955.894.894,0,0,1-.931-.94A.955.955,0,0,1-156.513,710.227Z" transform="translate(-130.438 -209.669)" fill="#fff"/>
    <path id="Tracé_183" data-name="Tracé 183" d="M-98.844,710.242a1.033,1.033,0,0,1,.969,1,.99.99,0,0,1-1.016.944,1,1,0,0,1-.969-.993A1.026,1.026,0,0,1-98.844,710.242Z" transform="translate(-185.178 -209.682)" fill="#fff"/>
    <path id="Tracé_184" data-name="Tracé 184" d="M-39.256,767.554a.933.933,0,0,1-.979.969.931.931,0,0,1-.953-1,.9.9,0,0,1,.943-.93A.925.925,0,0,1-39.256,767.554Z" transform="translate(-240.931 -263.235)" fill="#fff"/>
    <path id="Tracé_185" data-name="Tracé 185" d="M-39.257,711.205a.933.933,0,0,1-.981.97.911.911,0,0,1-.951-.929.979.979,0,0,1,.947-1.02A.963.963,0,0,1-39.257,711.205Z" transform="translate(-240.931 -209.668)" fill="#fff"/>
    <path id="Tracé_186" data-name="Tracé 186" d="M-156.532,766.56a.933.933,0,0,1,.985.961.922.922,0,0,1-.981.963.884.884,0,0,1-.943-.922A.92.92,0,0,1-156.532,766.56Z" transform="translate(-130.431 -263.2)" fill="#fff"/>
    <path id="Tracé_187" data-name="Tracé 187" d="M-98.883,768.52a1,1,0,0,1-.993-.963,1,1,0,0,1,1-.961,1,1,0,0,1,.994.963A1,1,0,0,1-98.883,768.52Z" transform="translate(-185.164 -263.234)" fill="#fff"/>
  </g>
</svg>
