<svg xmlns="http://www.w3.org/2000/svg" xmlns:xlink="http://www.w3.org/1999/xlink" width="131.596" height="70" viewBox="0 0 131.596 70">
  <defs>
    <linearGradient id="linear-gradient" x1="0.5" y1="-0.09" x2="0.5" y2="1.075" gradientUnits="objectBoundingBox">
      <stop offset="0" stop-color="#6bb1e2"/>
      <stop offset="0.994" stop-color="#003175"/>
    </linearGradient>
    <linearGradient id="linear-gradient-2" x1="0.5" y1="0.011" x2="0.5" y2="1.752" xlink:href="#linear-gradient"/>
    <linearGradient id="linear-gradient-3" x1="0.5" y1="-3.037" x2="0.5" y2="0.424" xlink:href="#linear-gradient"/>
    <linearGradient id="linear-gradient-4" x1="0.5" y1="-0.839" x2="0.5" y2="0.653" xlink:href="#linear-gradient"/>
    <linearGradient id="linear-gradient-5" x1="0.5" y1="-3.062" x2="0.5" y2="-0.44" xlink:href="#linear-gradient"/>
    <linearGradient id="linear-gradient-6" x1="0.5" y1="-12.124" x2="0.5" y2="-3.442" xlink:href="#linear-gradient"/>
    <linearGradient id="linear-gradient-7" x1="0.5" y1="-0.134" x2="0.5" y2="0.713" xlink:href="#linear-gradient"/>
    <linearGradient id="linear-gradient-8" x1="0.805" y1="0.018" x2="0.108" y2="1.147" gradientUnits="objectBoundingBox">
      <stop offset="0" stop-color="#a0ba3b"/>
      <stop offset="0.994" stop-color="#659935"/>
    </linearGradient>
    <linearGradient id="linear-gradient-9" x1="0.5" y1="1.721" x2="0.5" y2="0.111" xlink:href="#linear-gradient"/>
    <linearGradient id="linear-gradient-10" x1="0.5" y1="1.714" x2="0.5" y2="0.096" xlink:href="#linear-gradient"/>
    <linearGradient id="linear-gradient-11" x1="0.5" y1="1.731" x2="0.5" y2="0.097" xlink:href="#linear-gradient"/>
    <linearGradient id="linear-gradient-13" x1="0.5" y1="1.688" x2="0.5" y2="0.113" xlink:href="#linear-gradient"/>
    <linearGradient id="linear-gradient-17" x1="0.5" y1="1.666" x2="0.5" y2="0.094" xlink:href="#linear-gradient"/>
    <linearGradient id="linear-gradient-19" x1="0.5" y1="1.696" x2="0.5" y2="0.095" xlink:href="#linear-gradient"/>
  </defs>
  <g id="Groupe_7" data-name="Groupe 7" transform="translate(-35.375 -211.127)">
    <g id="Groupe_4" data-name="Groupe 4" transform="translate(75.414 211.127)">
      <g id="Groupe_3" data-name="Groupe 3" transform="translate(0 0)">
        <path id="Tracé_3" data-name="Tracé 3" d="M219.442,241.942c-2.2,2.683-4.4,5.359-6.656,7.966-5.64-4.007-14.883-10.505-16.743-17.628A25.835,25.835,0,0,1,207.1,221.487C211.949,224.691,216.272,233.536,219.442,241.942Z" transform="translate(-192.983 -218.708)" fill="url(#linear-gradient)"/>
        <path id="Tracé_4" data-name="Tracé 4" d="M267.857,215.594a10.937,10.937,0,0,1-1.86,3.85c-1.372,2.031-2.957,3.98-4.543,5.929q-2,2.367-3.966,4.783c-2.909-6.471-6.855-12.159-11.384-15.425a19.493,19.493,0,0,0-2.765-1.578,25.78,25.78,0,0,1,24.517,2.443Z" transform="translate(-227.592 -211.127)" fill="url(#linear-gradient-2)"/>
        <path id="Tracé_5" data-name="Tracé 5" d="M282.03,329.848c-2.422-1.469-4.789-3.047-7.15-4.638,1.51-1.551,2.923-3.177,4.261-4.79.034-.048.076-.089.11-.144,1.256,3.842,2.2,7.212,2.745,9.4C282.01,329.732,282.016,329.793,282.03,329.848Z" transform="translate(-250.672 -290.997)" fill="url(#linear-gradient-3)"/>
        <path id="Tracé_6" data-name="Tracé 6" d="M199.614,298.741c-2.971,2.71-6.518,5.119-9.97,4.831a25.8,25.8,0,0,1-4.069-22.177,20.844,20.844,0,0,0,2.834,5.977A45.613,45.613,0,0,0,199.614,298.741Z" transform="translate(-184.635 -262.545)" fill="url(#linear-gradient-4)"/>
        <path id="Tracé_7" data-name="Tracé 7" d="M235.423,362.989a18.557,18.557,0,0,1-.151,4.9,26.041,26.041,0,0,1-6.628.858,25.677,25.677,0,0,1-19.069-8.447,11.115,11.115,0,0,0,4.343-.247,24.726,24.726,0,0,0,7.87-3.939c.549.35,1.1.7,1.654,1.043A62.609,62.609,0,0,0,235.423,362.989Z" transform="translate(-202.885 -317.221)" fill="url(#linear-gradient-5)"/>
        <path id="Tracé_8" data-name="Tracé 8" d="M316.108,385.341a24.806,24.806,0,0,1-6,2.827,18.415,18.415,0,0,0,1.125-3.815A34.541,34.541,0,0,0,316.108,385.341Z" transform="translate(-276.447 -337.885)" fill="url(#linear-gradient-6)"/>
        <path id="Tracé_9" data-name="Tracé 9" d="M323.753,251.736a25.661,25.661,0,0,1-8.159,18.808q-.587-.154-1.132-.329l-.947-.3-.94-.4c-1.77-.748-3.486-1.592-5.174-2.511a55.329,55.329,0,0,0-3.053-16.365c4.1-5.613,9.668-14.183,9.476-19.233A25.7,25.7,0,0,1,323.753,251.736Z" transform="translate(-272.235 -225.971)" fill="url(#linear-gradient-7)"/>
      </g>
      <path id="Tracé_10" data-name="Tracé 10" d="M228.742,259.151q-.587-.154-1.132-.329l-.947-.3-.94-.4c-1.77-.748-3.486-1.592-5.174-2.511a55.329,55.329,0,0,0-3.053-16.365c4.1-5.613,9.668-14.183,9.476-19.233a3.745,3.745,0,0,0-2.1-3.527,2.914,2.914,0,0,1,.775,2.552,10.937,10.937,0,0,1-1.859,3.85c-1.372,2.031-2.957,3.98-4.543,5.929q-2,2.367-3.966,4.783c-2.909-6.471-6.855-12.159-11.384-15.425a19.491,19.491,0,0,0-2.765-1.578h-.007a6.108,6.108,0,0,0-4.714-.467,7.11,7.11,0,0,1,3.095,1.222c4.844,3.2,9.167,12.049,12.337,20.455-2.2,2.683-4.4,5.359-6.656,7.966-5.64-4.007-14.883-10.505-16.743-17.628a9.127,9.127,0,0,1,.467-6.21c-3.582,2.738-3.8,7.308-2.587,11.486a20.845,20.845,0,0,0,2.834,5.977,45.614,45.614,0,0,0,11.205,11.37c-2.971,2.71-6.518,5.119-9.97,4.831a6.664,6.664,0,0,1-3.376-1.256,6.527,6.527,0,0,0,5.057,3.307,11.116,11.116,0,0,0,4.343-.247,24.726,24.726,0,0,0,7.87-3.939c.549.35,1.1.7,1.654,1.043a62.605,62.605,0,0,0,11.98,5.833,18.557,18.557,0,0,1-.151,4.9,12.594,12.594,0,0,1-.686,2.443,8.127,8.127,0,0,0,1.949-2.82c.007,0,.007,0,.007-.007a18.417,18.417,0,0,0,1.125-3.815,34.542,34.542,0,0,0,4.879.988c.3.034.59.068.885.1,3.307.165,7.994-.185,9.339-3.76C233.477,259.988,230.959,259.741,228.742,259.151ZM209.591,248.79c1.51-1.551,2.923-3.177,4.261-4.79.034-.048.076-.089.11-.144,1.256,3.842,2.2,7.212,2.745,9.4.014.055.02.117.034.172C214.319,251.96,211.952,250.381,209.591,248.79Z" transform="translate(-185.383 -214.577)" fill="url(#linear-gradient-8)"/>
    </g>
    <g id="Groupe_6" data-name="Groupe 6" transform="translate(35.375 268.369)">
      <g id="Groupe_5" data-name="Groupe 5" transform="translate(0 0)">
        <path id="Tracé_11" data-name="Tracé 11" d="M35.375,436.645a3.2,3.2,0,0,0,.651-.054.9.9,0,0,0,.416-.2,1.077,1.077,0,0,0,.271-.424q.109-.28.253-.714.777-2.638,1.572-5.268t1.59-5.268h.615l3.849,11.927h.8v.307H41.068v-.307h1.211l-1.157-3.632H37.978l-.127.361q-.091.272-.217.687t-.244.831q-.117.415-.208.759a2.252,2.252,0,0,0-.09.47.358.358,0,0,0,.171.325,1.169,1.169,0,0,0,.407.154,2.558,2.558,0,0,0,.479.045h.425v.307h-3.2Zm2.693-3.94h2.964l-1.518-4.735Z" transform="translate(-35.375 -424.664)" fill="url(#linear-gradient-9)"/>
        <path id="Tracé_12" data-name="Tracé 12" d="M76.623,437.139h1.1v.307H73.641v-.307h.994V425.7h-.994v-.307h5.223a4.814,4.814,0,0,1,1.174.145,2.817,2.817,0,0,1,1.021.479,2.52,2.52,0,0,1,.723.886,3.038,3.038,0,0,1,.28,1.382,2.933,2.933,0,0,1-.19,1.1,2.455,2.455,0,0,1-.515.8,2.773,2.773,0,0,1-.759.552,3.969,3.969,0,0,1-.922.325v.2a2.462,2.462,0,0,1,1.184.642,3.017,3.017,0,0,1,.642,1,4.3,4.3,0,0,1,.271,1.183q.054.624.072,1.184c.012.265.027.515.046.749a3.238,3.238,0,0,0,.1.615.963.963,0,0,0,.217.416.519.519,0,0,0,.4.153,1.012,1.012,0,0,0,.307-.045c.1-.03.193-.063.289-.1a.052.052,0,0,0,.036-.018l.108.271a2.446,2.446,0,0,1-.605.2,3.368,3.368,0,0,1-.605.054,2.728,2.728,0,0,1-1.247-.235,1.687,1.687,0,0,1-.7-.65,2.688,2.688,0,0,1-.325-.994q-.081-.578-.135-1.284c-.012-.145-.025-.3-.036-.452s-.03-.319-.054-.488a2.858,2.858,0,0,0-.37-1.211,1.788,1.788,0,0,0-.687-.641,2.483,2.483,0,0,0-.913-.254q-.506-.045-1.048-.044Zm0-11.439v5.331H77.2a3.57,3.57,0,0,0,1-.144,2.406,2.406,0,0,0,.877-.461,2.332,2.332,0,0,0,.614-.813,2.848,2.848,0,0,0,.235-1.22,3.528,3.528,0,0,0-.217-1.337,1.978,1.978,0,0,0-.6-.822,2.238,2.238,0,0,0-.886-.416,4.8,4.8,0,0,0-1.084-.117Z" transform="translate(-63.376 -425.158)" fill="url(#linear-gradient-10)"/>
        <path id="Tracé_13" data-name="Tracé 13" d="M116.005,437.085h1.753q.831,0,1.545-.045a2.82,2.82,0,0,0,1.238-.344,2.06,2.06,0,0,0,.831-.948,4.48,4.48,0,0,0,.307-1.861h.307v3.56h-9.072v-.307h.9V425.7h-.9v-.307h9.054l.018,2.963h-.307a3.6,3.6,0,0,0-.515-1.527,2.231,2.231,0,0,0-.9-.777,3.206,3.206,0,0,0-1.211-.271q-.678-.027-1.455-.027h-1.59v5.332h.47q.56,0,.985-.036a1.455,1.455,0,0,0,.714-.235,1.2,1.2,0,0,0,.434-.624,4.124,4.124,0,0,0,.163-1.183h.289v4.553h-.289a4.527,4.527,0,0,0-.135-1.093,1.353,1.353,0,0,0-.334-.614,1.045,1.045,0,0,0-.524-.271,3.49,3.49,0,0,0-.7-.063h-1.066Z" transform="translate(-92.115 -425.158)" fill="url(#linear-gradient-11)"/>
        <path id="Tracé_14" data-name="Tracé 14" d="M149.905,437.013v.109h-.072Zm3.361.434v-.307H152.7a1.709,1.709,0,0,1-.434-.054.911.911,0,0,1-.352-.172.456.456,0,0,1-.163-.335,1.5,1.5,0,0,1-.036-.361v-8.964l.145-.036,3.542,10.03q.867-2.457,1.708-4.906t1.671-4.906l.145.036-.018,9.65h-1.012v.325h4.174v-.307h-.976V425.7h.976v-.307H159.1l-2.819,8.15-2.837-8.15h-3.488v.307h1.319a1.774,1.774,0,0,1,.063.515q.027.479.036,1.238t.018,1.726q.009.967.009,1.961v1.816q0,.895-.009,1.626t-.027,1.246q-.019.515-.036.678c-.036.325-.172.512-.407.56a3.354,3.354,0,0,1-.8.055h-.217v.325Z" transform="translate(-119.13 -425.158)" fill="url(#linear-gradient-11)"/>
        <path id="Tracé_15" data-name="Tracé 15" d="M204.249,424.517a3.422,3.422,0,0,1,1.888.552,5.279,5.279,0,0,1,1.482,1.445,7.15,7.15,0,0,1,.967,2.024,7.763,7.763,0,0,1,.344,2.268,7.645,7.645,0,0,1-.344,2.268,6.922,6.922,0,0,1-.967,1.987,5.247,5.247,0,0,1-1.482,1.419,3.581,3.581,0,0,1-3.8-.009,5.088,5.088,0,0,1-1.482-1.454,7.4,7.4,0,0,1-.958-2.042,7.971,7.971,0,0,1-.343-2.313,6.932,6.932,0,0,1,.37-2.222,7.071,7.071,0,0,1,1.012-1.97,5.59,5.59,0,0,1,1.491-1.41A3.333,3.333,0,0,1,204.249,424.517Zm.036.289a1.655,1.655,0,0,0-.994.3,2.511,2.511,0,0,0-.7.795,4.694,4.694,0,0,0-.461,1.12,10.989,10.989,0,0,0-.271,1.283q-.1.659-.135,1.3t-.036,1.147q0,.525.027,1.165t.117,1.3a11.352,11.352,0,0,0,.253,1.293,4.65,4.65,0,0,0,.443,1.129,2.416,2.416,0,0,0,.7.8,1.689,1.689,0,0,0,1.012.3,1.655,1.655,0,0,0,1.012-.307,2.423,2.423,0,0,0,.686-.8,4.374,4.374,0,0,0,.416-1.138,11.871,11.871,0,0,0,.217-1.3q.072-.66.09-1.3t.018-1.148q0-.452-.027-1.066t-.117-1.265q-.091-.651-.244-1.3a4.76,4.76,0,0,0-.425-1.157,2.73,2.73,0,0,0-.65-.822A1.393,1.393,0,0,0,204.286,424.806Z" transform="translate(-155.511 -424.517)" fill="url(#linear-gradient-13)"/>
        <path id="Tracé_16" data-name="Tracé 16" d="M267.191,425.7h-.253a6.24,6.24,0,0,0-1.428.136,1.71,1.71,0,0,0-.895.506,2.143,2.143,0,0,0-.47,1.012,8.382,8.382,0,0,0-.136,1.672h-.325q.036-.939.045-1.825t.045-1.807h8.945q.018.922.027,1.807t.027,1.825h-.289a8.574,8.574,0,0,0-.145-1.762,2,2,0,0,0-.5-1.012,1.7,1.7,0,0,0-.958-.451,10,10,0,0,0-1.563-.1v11.439h1.229v.307h-4.644v-.307h1.283Z" transform="translate(-202.441 -425.158)" fill="url(#linear-gradient-11)"/>
        <path id="Tracé_17" data-name="Tracé 17" d="M303.045,437.139h1.1v.307h-4.084v-.307h.994V425.7h-.994v-.307h5.223a4.815,4.815,0,0,1,1.174.145,2.818,2.818,0,0,1,1.021.479,2.521,2.521,0,0,1,.723.886,3.038,3.038,0,0,1,.28,1.382,2.933,2.933,0,0,1-.19,1.1,2.456,2.456,0,0,1-.515.8,2.774,2.774,0,0,1-.759.552,3.969,3.969,0,0,1-.922.325v.2a2.462,2.462,0,0,1,1.184.642,3.017,3.017,0,0,1,.642,1,4.3,4.3,0,0,1,.271,1.183q.054.624.072,1.184c.012.265.027.515.046.749a3.243,3.243,0,0,0,.1.615.962.962,0,0,0,.217.416.519.519,0,0,0,.4.153,1.012,1.012,0,0,0,.307-.045c.1-.03.193-.063.289-.1a.052.052,0,0,0,.036-.018l.108.271a2.446,2.446,0,0,1-.605.2,3.369,3.369,0,0,1-.605.054,2.728,2.728,0,0,1-1.247-.235,1.687,1.687,0,0,1-.7-.65,2.686,2.686,0,0,1-.325-.994q-.081-.578-.136-1.284c-.012-.145-.024-.3-.036-.452s-.03-.319-.054-.488a2.858,2.858,0,0,0-.37-1.211,1.787,1.787,0,0,0-.687-.641,2.483,2.483,0,0,0-.913-.254q-.506-.045-1.048-.044Zm0-11.439v5.331h.578a3.57,3.57,0,0,0,1-.144,2.406,2.406,0,0,0,.877-.461,2.332,2.332,0,0,0,.614-.813,2.848,2.848,0,0,0,.235-1.22,3.528,3.528,0,0,0-.217-1.337,1.978,1.978,0,0,0-.6-.822,2.238,2.238,0,0,0-.886-.416,4.8,4.8,0,0,0-1.084-.117Z" transform="translate(-229.061 -425.158)" fill="url(#linear-gradient-10)"/>
        <path id="Tracé_18" data-name="Tracé 18" d="M337.182,436.645a3.2,3.2,0,0,0,.65-.054.9.9,0,0,0,.416-.2,1.077,1.077,0,0,0,.271-.424q.108-.28.253-.714.777-2.638,1.572-5.268t1.591-5.268h.614l3.849,11.927h.8v.307h-4.319v-.307h1.211l-1.156-3.632h-3.144l-.127.361q-.091.272-.217.687t-.244.831q-.118.415-.208.759a2.252,2.252,0,0,0-.09.47.358.358,0,0,0,.171.325,1.17,1.17,0,0,0,.407.154,2.553,2.553,0,0,0,.479.045h.425v.307h-3.2Zm2.693-3.94h2.964l-1.518-4.735Z" transform="translate(-256.223 -424.664)" fill="url(#linear-gradient-9)"/>
        <path id="Tracé_19" data-name="Tracé 19" d="M372.821,425.393h4.446v.307H376.11l2.512,8.313q.578-1.717.976-2.927t.669-2.042q.27-.832.424-1.328t.226-.786a4.292,4.292,0,0,0,.09-.425,1.767,1.767,0,0,0,.018-.226.443.443,0,0,0-.135-.353.848.848,0,0,0-.344-.172,1.709,1.709,0,0,0-.434-.054h-.442v-.307H383v.307h-.145a6.336,6.336,0,0,0-.669.027.65.65,0,0,0-.38.163,1.112,1.112,0,0,0-.253.424q-.109.29-.271.8l-3.542,10.806L373.779,425.7h-.958Z" transform="translate(-282.302 -425.158)" fill="url(#linear-gradient-17)"/>
        <path id="Tracé_20" data-name="Tracé 20" d="M408.527,436.645a3.2,3.2,0,0,0,.65-.054.894.894,0,0,0,.416-.2,1.077,1.077,0,0,0,.271-.424q.107-.28.253-.714.777-2.638,1.572-5.268t1.59-5.268h.615l3.85,11.927h.795v.307h-4.319v-.307h1.211l-1.156-3.632h-3.144l-.126.361c-.061.181-.133.41-.217.687s-.165.554-.244.831-.148.53-.207.759a2.217,2.217,0,0,0-.091.47.359.359,0,0,0,.172.325,1.169,1.169,0,0,0,.407.154,2.55,2.55,0,0,0,.479.045h.424v.307h-3.2Zm2.692-3.94h2.963l-1.518-4.735Z" transform="translate(-308.429 -424.664)" fill="url(#linear-gradient-9)"/>
        <path id="Tracé_21" data-name="Tracé 21" d="M456.991,425.7H456.7c-.241,0-.437.006-.587.018a.55.55,0,0,0-.361.154.769.769,0,0,0-.181.442,6.276,6.276,0,0,0-.046.868v6.163a4.8,4.8,0,0,1-.948,3.352,3.74,3.74,0,0,1-2.846,1,10.49,10.49,0,0,1-1.31-.09,4.9,4.9,0,0,1-1.355-.37,3.4,3.4,0,0,1-1.121-.786,2.325,2.325,0,0,1-.587-1.337,2.907,2.907,0,0,1-.036-.506V425.7h-1.139v-.307h4.572v.307H449.6v7.789a10.752,10.752,0,0,0,.1,1.527,3.46,3.46,0,0,0,.38,1.2,2.066,2.066,0,0,0,.768.795,2.412,2.412,0,0,0,1.247.289,3.105,3.105,0,0,0,1.419-.3,2.367,2.367,0,0,0,.94-.849,3.951,3.951,0,0,0,.515-1.337,8.622,8.622,0,0,0,.163-1.744v-5.892a4.714,4.714,0,0,0-.063-.885.876.876,0,0,0-.208-.451.582.582,0,0,0-.379-.163,4.8,4.8,0,0,0-.579,0c-.06,0-.124,0-.19.009s-.142.009-.226.009v-.307h3.506Z" transform="translate(-335.985 -425.158)" fill="url(#linear-gradient-19)"/>
        <path id="Tracé_22" data-name="Tracé 22" d="M485.93,437.139h.181a5.984,5.984,0,0,0,.795-.018,1.36,1.36,0,0,0,.777-.326,2,2,0,0,0,.307-.37q.181-.262.5-.814t.8-1.473q.489-.922,1.23-2.35l-2.892-6.09h-.958v-.307h4.373v.307h-1.1l1.951,4.03q.633-1.138.995-1.807t.551-1.039a4.465,4.465,0,0,0,.244-.533.883.883,0,0,0,.054-.27c0-.181-.06-.29-.18-.326a1.144,1.144,0,0,0-.326-.054H492.4v-.307h3.47v.307h-.09a5.563,5.563,0,0,0-.678.046,1.142,1.142,0,0,0-.623.262,3.556,3.556,0,0,0-.253.289,5.8,5.8,0,0,0-.4.605q-.253.425-.669,1.183t-1.085,2.006l3.434,7.048h1.157v.307h-4.717v-.307h1.211l-2.458-4.987-1.445,2.765q-.272.506-.434.822c-.109.211-.2.386-.263.524s-.111.241-.135.307a.518.518,0,0,0-.036.172.313.313,0,0,0,.091.244.544.544,0,0,0,.216.117.888.888,0,0,0,.244.036h.894v.307h-3.9Z" transform="translate(-365.069 -425.158)" fill="url(#linear-gradient-11)"/>
      </g>
    </g>
  </g>
</svg>
